<svg width="200" height="134" viewBox="0 0 200 134" fill="none" xmlns="http://www.w3.org/2000/svg">
<circle cx="100.5" cy="67.5" r="65.5" fill="#C5EAFF"/>
<path d="M176.843 81.1253L173.333 81.2L171.557 81.2293C170.965 81.2427 170.368 81.2293 169.773 81.2453H169.656V81.1253L169.648 78.1333V78H169.781L173.312 78.016C174.488 78.016 175.667 78.0453 176.843 78.0587H176.915V78.1333C176.915 78.64 176.893 79.144 176.88 79.6427L176.843 81.1253ZM176.843 81.1253L176.805 79.6187C176.805 79.1227 176.776 78.632 176.771 78.1413L176.843 78.216C175.667 78.2293 174.488 78.2587 173.312 78.2587L169.781 78.2747L169.915 78.1413L169.899 81.1253L169.781 81.008C170.363 81.008 170.944 81.008 171.525 81.0213L173.28 81.0533L176.843 81.1253Z" fill="#EBEBEB"/>
<path d="M172.904 84.888L169.403 84.9627L167.627 84.992C167.035 84.992 166.437 84.992 165.843 85.008H165.723V84.888L165.709 81.904V81.7707H165.843L169.373 81.7894C170.549 81.7894 171.725 81.8187 172.904 81.832H172.976V81.904C172.976 82.4107 172.952 82.9147 172.941 83.4134L172.904 84.888ZM172.904 84.888L172.867 83.3814C172.867 82.8854 172.835 82.3947 172.829 81.904L172.904 81.9787C171.725 81.992 170.549 82.0214 169.373 82.0214L165.843 82.0374L165.976 81.904L165.96 84.888L165.843 84.7707C166.424 84.7707 167.003 84.7707 167.587 84.784L169.341 84.816L172.904 84.888Z" fill="#EBEBEB"/>
<path d="M30.2186 81.1253L26.7199 81.2L24.9439 81.2293C24.3493 81.2427 23.7519 81.2293 23.1573 81.2453H23.0399V81.1253L23.0239 78.1333V78H23.1573L26.6879 78.016C27.8639 78.016 29.0426 78.0453 30.2186 78.0587H30.2933V78.1333C30.2933 78.64 30.2719 79.144 30.2586 79.6427L30.2186 81.1253ZM30.2186 81.1253L30.1813 79.6187C30.1679 79.1227 30.1519 78.632 30.1466 78.1413L30.2186 78.216C29.0426 78.2293 27.8639 78.2587 26.6879 78.2587L23.1573 78.2747L23.2906 78.1413V81.1253L23.1706 81.008C23.7519 81.008 24.3333 81.008 24.9173 81.0213L26.6666 81.0667L30.2186 81.1253Z" fill="#EBEBEB"/>
<path d="M26.28 84.888L22.7787 84.9627L21.0027 84.992C20.4107 84.992 19.8133 84.992 19.2187 85.008H19.1013V84.888L19.088 81.904V81.7707H19.2213L22.752 81.7894C23.928 81.7894 25.1067 81.8187 26.2827 81.832H26.3573V81.904C26.3573 82.4107 26.336 82.9147 26.3227 83.4134L26.28 84.888ZM26.28 84.888L26.2427 83.3814C26.2427 82.8854 26.2133 82.3947 26.208 81.904L26.28 81.9787C25.104 81.992 23.9253 82.0214 22.7493 82.0214L19.2187 82.0374L19.352 81.904L19.336 84.888L19.2187 84.7707C19.8 84.7707 20.3813 84.7707 20.9627 84.784L22.7173 84.816L26.28 84.888Z" fill="#EBEBEB"/>
<path d="M180.781 84.888L177.283 84.9627L175.507 84.992C174.912 84.992 174.315 84.992 173.72 85.008H173.6V84.888V81.904V81.7707H173.733L177.264 81.7894C178.44 81.7894 179.619 81.8187 180.795 81.832H180.869V81.904C180.869 82.4107 180.848 82.9147 180.835 83.4134L180.781 84.888ZM180.781 84.888L180.744 83.3814C180.744 82.8854 180.715 82.3947 180.709 81.904L180.781 81.9787C179.605 81.992 178.427 82.0214 177.251 82.0214L173.72 82.0374L173.853 81.904L173.84 84.888L173.72 84.7707C174.301 84.7707 174.883 84.7707 175.467 84.784L177.221 84.816L180.781 84.888Z" fill="#EBEBEB"/>
<path d="M126.317 36.632L122.816 36.7066L121.04 36.736C120.448 36.7493 119.851 36.736 119.256 36.752H119.136V36.632L119.123 33.648V33.5146H119.256L122.787 33.5306C123.963 33.5306 125.141 33.5626 126.317 33.576H126.4V33.648C126.4 34.1546 126.379 34.6586 126.365 35.1546L126.317 36.632ZM126.317 36.632L126.28 35.1253C126.267 34.6266 126.248 34.136 126.245 33.648L126.317 33.72C125.141 33.72 123.963 33.7626 122.787 33.7653L119.256 33.7813L119.389 33.648L119.373 36.632L119.256 36.512C119.837 36.512 120.419 36.512 121 36.528L122.755 36.5573L126.317 36.632Z" fill="#EBEBEB"/>
<path d="M122.379 40.3947L118.877 40.4693L117.101 40.4987C116.509 40.4987 115.912 40.4987 115.317 40.5147H115.2V40.3947L115.187 37.4107V37.2773H115.323L118.853 37.2933C120.029 37.2933 121.205 37.3253 122.384 37.3387H122.456V37.4107C122.456 37.9173 122.432 38.4213 122.421 38.9173L122.379 40.3947ZM122.379 40.3947L122.341 38.888C122.341 38.3893 122.309 37.8987 122.304 37.4107L122.379 37.4827C121.2 37.496 120.024 37.5253 118.848 37.528L115.317 37.544L115.451 37.4107L115.435 40.3947L115.317 40.2747C115.899 40.2747 116.477 40.2747 117.061 40.2907L118.816 40.32L122.379 40.3947Z" fill="#EBEBEB"/>
<path d="M130.256 40.3947L126.757 40.4693L124.979 40.4987C124.387 40.4987 123.789 40.4987 123.195 40.5147H123.077V40.3947V37.4107V37.2773H123.211L126.741 37.2933C127.917 37.2933 129.096 37.3253 130.272 37.3387H130.347V37.4107C130.347 37.9173 130.325 38.4213 130.312 38.9173L130.256 40.3947ZM130.256 40.3947L130.219 38.888C130.205 38.3893 130.189 37.8987 130.184 37.4107L130.256 37.4827C129.08 37.496 127.901 37.5253 126.725 37.528L123.195 37.544L123.328 37.4107L123.315 40.3947L123.2 40.2667C123.781 40.2667 124.363 40.2667 124.947 40.2827L126.699 40.312L130.256 40.3947Z" fill="#EBEBEB"/>
<path d="M39.9119 65.3627L36.4106 65.4373L34.6346 65.4667C34.0426 65.4667 33.4453 65.4667 32.8506 65.48H32.7306V65.36V62.376V62.2427H32.8639L36.3946 62.2587C37.5706 62.2587 38.7466 62.288 39.9253 62.3013H39.9973V62.3733C39.9973 62.88 39.9733 63.3813 39.9626 63.88L39.9119 65.3627ZM39.9119 65.3627L39.8746 63.8533C39.8613 63.3573 39.8426 62.8667 39.8373 62.3787L39.9119 62.4507C38.7333 62.464 37.5573 62.4933 36.3813 62.4933L32.8506 62.512L32.9839 62.3787L32.9679 65.3627L32.8506 65.2427C33.4319 65.2427 34.0133 65.2427 34.5946 65.2587L36.3493 65.288L39.9119 65.3627Z" fill="#EBEBEB"/>
<path d="M72.3574 92.6027L68.856 92.6774L67.08 92.7067C66.488 92.72 65.8907 92.7067 65.296 92.7227H65.176V92.6027V89.6187V89.4854H65.3094L68.84 89.504C70.016 89.504 71.1947 89.5333 72.3707 89.5467H72.4427V89.6187C72.4427 90.1254 72.4214 90.6294 72.408 91.128L72.3574 92.6027ZM72.3574 92.6027L72.32 91.096C72.3067 90.6 72.2907 90.1067 72.2854 89.6187L72.3574 89.6934C71.1814 89.6934 70.0027 89.7334 68.8267 89.736L65.296 89.752L65.4294 89.6187L65.4134 92.6027L65.296 92.4854C65.8774 92.4854 66.4587 92.4853 67.04 92.4987L68.8 92.5333L72.3574 92.6027Z" fill="#EBEBEB"/>
<path d="M176.435 16.6347L172.933 16.7093L171.157 16.7387C170.565 16.7387 169.968 16.7387 169.373 16.7547H169.253V16.6347L169.24 13.6507V13.5173H169.373L172.904 13.5333C174.08 13.5333 175.256 13.5653 176.435 13.5787H176.507V13.6507C176.507 14.1573 176.485 14.6613 176.472 15.1573L176.435 16.6347ZM176.435 16.6347L176.397 15.128C176.397 14.6293 176.365 14.1387 176.36 13.6507L176.435 13.7227C175.256 13.7227 174.08 13.7653 172.904 13.768L169.373 13.784L169.507 13.6507L169.491 16.6347L169.373 16.5147C169.955 16.5147 170.536 16.5147 171.117 16.5307L172.872 16.56L176.435 16.6347Z" fill="#EBEBEB"/>
<path d="M180.373 20.3974L176.872 20.472L175.096 20.5014C174.504 20.5147 173.907 20.5014 173.312 20.5174H173.195V20.3974L173.181 17.4134V17.28H173.315L176.845 17.296C178.021 17.296 179.2 17.328 180.376 17.3414H180.451V17.4134C180.451 17.92 180.429 18.424 180.416 18.92L180.373 20.3974ZM180.373 20.3974L180.336 18.8907C180.336 18.392 180.307 17.9014 180.301 17.4134L180.373 17.4854C179.197 17.4987 178.019 17.528 176.843 17.5307L173.312 17.5467L173.445 17.4134L173.429 20.3974L173.312 20.2774C173.893 20.2774 174.475 20.2774 175.056 20.2934L176.811 20.3227L180.373 20.3974Z" fill="#EBEBEB"/>
<path d="M26.28 16.6374L22.7787 16.712L21.0027 16.7414C20.4107 16.7414 19.8133 16.7414 19.2187 16.7574H19.1013V16.6374L19.0853 13.6534V13.52H19.2187L22.7493 13.5387C23.9253 13.5387 25.104 13.568 26.28 13.5814H26.3547V13.6534C26.3547 14.16 26.3333 14.664 26.32 15.1627L26.28 16.6374ZM26.28 16.6374L26.2427 15.1307C26.2427 14.6347 26.2133 14.1414 26.208 13.6534L26.28 13.7254C25.104 13.7414 23.9253 13.768 22.7493 13.7707L19.2187 13.7867L19.352 13.6534L19.336 16.6374L19.2187 16.5334C19.8 16.5334 20.3813 16.5334 20.9627 16.5334L22.7173 16.5627L26.28 16.6374Z" fill="#EBEBEB"/>
<path d="M25.1013 101.915H51.1786L51.1786 53.416H25.1013L25.1013 101.915Z" fill="#EBEBEB"/>
<path d="M23.84 53.416H52.4426V52.0773H23.84V53.416Z" fill="#DBDBDB"/>
<path d="M14.8426 53.416H23.8373V52.0773H14.8426V53.416Z" fill="#EBEBEB"/>
<path d="M16.2667 101.915H25.1013L25.1013 53.416H16.2667L16.2667 101.915Z" fill="#DBDBDB"/>
<path d="M27.9413 84.6133H48.3386V73.1147H27.9413V84.6133Z" stroke="#C7C7C7" stroke-width="0.25" stroke-miterlimit="10"/>
<path d="M37.0133 78.752H40.9973V76.4613H37.0133V78.752Z" fill="#C7C7C7"/>
<path d="M35.8346 78.5787H39.8186V76.6347H35.8346V78.5787Z" stroke="#C7C7C7" stroke-width="0.25" stroke-miterlimit="10"/>
<path d="M27.9413 99.1414H48.3386V87.6427H27.9413V99.1414Z" stroke="#C7C7C7" stroke-width="0.25" stroke-miterlimit="10"/>
<path d="M37.0133 93.28H40.9973V90.9894H37.0133V93.28Z" fill="#C7C7C7"/>
<path d="M35.8346 93.1067H39.8186V91.1627H35.8346V93.1067Z" stroke="#C7C7C7" stroke-width="0.25" stroke-miterlimit="10"/>
<path d="M27.9413 70.0853H48.3386V58.5867H27.9413V70.0853Z" fill="#A6A6A6"/>
<path d="M45.456 55.6426H29.928V66.8986H45.456V55.6426Z" fill="#C7C7C7"/>
<path d="M39.968 54.4747H45.456V55.6427H39.6533L39.968 54.4747Z" fill="#C7C7C7"/>
<path d="M29.968 66.896H45.496L46.6934 56.576H31.1654L29.968 66.896Z" fill="#A6A6A6"/>
<path d="M41.3306 55.5067H46.816L46.6933 56.576H40.8906L41.3306 55.5067Z" fill="#A6A6A6"/>
<path d="M37.7653 70.0853H58.1626V58.5867H37.7653V70.0853Z" fill="#EBEBEB" stroke="#C7C7C7" stroke-width="0.25" stroke-miterlimit="10"/>
<path d="M46.8373 64.224H50.8213V61.9333H46.8373V64.224Z" fill="#C7C7C7"/>
<path d="M45.6587 64.0507H49.6427V62.1067H45.6587V64.0507Z" stroke="#C7C7C7" stroke-width="0.25" stroke-miterlimit="10"/>
<path d="M27.9413 70.0853H37.7173V60.3093H27.9413V70.0853Z" fill="#DBDBDB"/>
<path d="M54.8586 12.1733V0" stroke="#C7C7C7" stroke-miterlimit="10"/>
<path d="M62.3813 19.4213L61.7759 20.752H47.9413L47.3359 19.4213L53.2266 15.3467H56.4906L62.3813 19.4213Z" fill="#EBEBEB"/>
<path d="M56.8986 11.4186L56.4906 15.3466H53.2266L52.8186 11.4186H56.8986Z" fill="#DBDBDB"/>
<path d="M62.3786 19.424L61.7733 20.752H47.9386L47.3359 19.424H62.3786Z" fill="#DBDBDB"/>
<path d="M84.952 12.1733V0" stroke="#C7C7C7" stroke-miterlimit="10"/>
<path d="M92.4747 19.4213L91.8693 20.752H78.0347L77.432 19.4213L83.3227 15.3467H86.584L92.4747 19.4213Z" fill="#EBEBEB"/>
<path d="M86.9947 11.4186L86.584 15.3466H83.3226L82.912 11.4186H86.9947Z" fill="#DBDBDB"/>
<path d="M92.4747 19.424L91.8693 20.752H78.0347L77.432 19.424H92.4747Z" fill="#DBDBDB"/>
<path d="M115.048 12.1733V0" stroke="#C7C7C7" stroke-miterlimit="10"/>
<path d="M122.568 19.4213L121.965 20.752H108.131L107.525 19.4213L113.416 15.3467H116.68L122.568 19.4213Z" fill="#EBEBEB"/>
<path d="M117.088 11.4186L116.68 15.3466H113.416L113.008 11.4186H117.088Z" fill="#DBDBDB"/>
<path d="M122.568 19.424L121.963 20.752H108.128L107.525 19.424H122.568Z" fill="#DBDBDB"/>
<path d="M145.141 12.1733V0" stroke="#C7C7C7" stroke-miterlimit="10"/>
<path d="M152.664 19.4213L152.059 20.752H138.224L137.621 19.4213L143.509 15.3467H146.773L152.664 19.4213Z" fill="#EBEBEB"/>
<path d="M147.181 11.4186L146.773 15.3466H143.509L143.101 11.4186H147.181Z" fill="#DBDBDB"/>
<path d="M152.664 19.424L152.059 20.752H138.224L137.621 19.424H152.664Z" fill="#DBDBDB"/>
<path d="M14.4827 101.915L35.8613 101.851L57.24 101.827L100 101.781L142.76 101.827L164.139 101.851L185.517 101.915L164.139 101.981L142.76 102.003L100 102.048L57.24 102.003L35.8613 101.979L14.4827 101.915Z" fill="#263238"/>
<path d="M100 123.883C143.357 123.883 178.504 121.224 178.504 117.944C178.504 114.664 143.357 112.005 100 112.005C56.6434 112.005 21.496 114.664 21.496 117.944C21.496 121.224 56.6434 123.883 100 123.883Z" fill="#EBEBEB"/>
<path d="M37.5706 71.568C36.6106 70.6267 35.3706 69.4907 33.9013 69.896C32.5226 70.2773 31.992 71.784 31.7466 73.04C31.4266 74.6587 31.1786 76.2933 30.9226 77.9227C30.6666 79.552 30.4186 81.216 30.1813 82.8667C30.048 83.7973 29.9146 84.7333 29.7866 85.6587C29.72 86.1227 29.656 86.5893 29.592 87.0533C29.528 87.5173 29.4533 87.968 29.4266 88.4267C29.4266 88.5733 29.6506 88.5947 29.6933 88.456C29.8693 87.68 29.944 86.872 30.0586 86.0853L30.4 83.7067C30.6293 82.1333 30.8693 80.56 31.1066 78.9867C31.344 77.4133 31.5893 75.84 31.84 74.2667C32.0533 72.9333 32.152 71.28 33.336 70.4C33.6559 70.1803 34.0266 70.0458 34.413 70.0094C34.7994 69.973 35.1887 70.0359 35.544 70.192C36.3226 70.4907 36.944 71.0453 37.552 71.5973C37.5557 71.5981 37.5595 71.5977 37.5629 71.5962C37.5664 71.5947 37.5693 71.5922 37.5713 71.589C37.5733 71.5859 37.5743 71.5822 37.5742 71.5784C37.5741 71.5747 37.5729 71.571 37.5706 71.568Z" fill="#263238"/>
<path d="M36.2666 70.6053C36.2666 70.6053 34.3066 69.9013 33.3333 71.3333C32.36 72.7653 33.5226 76.4 42.4586 78.4613C42.1919 75.6731 41.4628 72.9488 40.3013 70.4C38.4 66.208 34.9733 67.7893 36.2666 70.6053Z" fill="#4898C6"/>
<path d="M41.9386 77.8667C41.8017 77.6169 41.6513 77.3748 41.488 77.1414C41.3386 76.912 41.1866 76.6827 41.0346 76.4534L40.6853 75.9414C40.6853 75.9014 40.6853 75.8587 40.7013 75.816L40.7333 75.5814C40.7546 75.416 40.7786 75.248 40.8026 75.08C40.8266 74.912 40.856 74.7494 40.888 74.5814C40.9075 74.3998 40.9468 74.221 41.0053 74.048C41.0053 74.0214 40.968 74.008 40.9653 74.048C40.9465 74.1486 40.9197 74.2476 40.8853 74.344C40.864 74.4187 40.8453 74.4934 40.8266 74.568C40.7813 74.7387 40.7413 74.9094 40.704 75.08C40.6666 75.2507 40.6373 75.3947 40.6106 75.5547C40.6106 75.6294 40.5866 75.7067 40.576 75.784C40.416 75.5547 40.256 75.3307 40.088 75.1094C39.6133 74.4854 39.112 73.8827 38.592 73.296C38.592 73.296 38.592 73.296 38.592 73.28C38.6373 72.3414 38.616 71.4134 38.824 70.488C38.824 70.464 38.792 70.4507 38.7866 70.4747C38.5492 71.3432 38.4361 72.2411 38.4506 73.1414C38.2666 72.9334 38.0773 72.7254 37.888 72.5227C37.4506 72.0534 37.008 71.592 36.5546 71.1414C36.536 71.1227 36.5093 71.1414 36.5253 71.1707C37.28 71.9707 37.9946 72.824 38.6906 73.6827C38.1451 73.6752 37.5995 73.6956 37.056 73.744C36.4506 73.7894 35.8506 73.8667 35.248 73.9494C35.2213 73.9494 35.2293 73.992 35.248 73.9894C35.8464 73.9032 36.4491 73.8489 37.0533 73.8267C37.6373 73.8027 38.216 73.8267 38.8 73.8267C39.176 74.2934 39.5493 74.7654 39.9146 75.2374H39.832C39.696 75.2374 39.5653 75.2374 39.4213 75.2374C39.1546 75.2374 38.888 75.2614 38.6213 75.2827C38.0661 75.328 37.5146 75.4108 36.9706 75.5307C36.9666 75.5322 36.963 75.5349 36.9605 75.5385C36.9581 75.5421 36.9567 75.5463 36.9567 75.5507C36.9567 75.5551 36.9581 75.5593 36.9605 75.5629C36.963 75.5665 36.9666 75.5692 36.9706 75.5707C37.52 75.5094 38.0693 75.456 38.6213 75.4374C38.888 75.4374 39.1546 75.4374 39.4213 75.4374H39.832C39.9073 75.4463 39.9837 75.439 40.056 75.416C40.296 75.728 40.5386 76.04 40.776 76.3547C40.9653 76.6027 41.152 76.856 41.336 77.1094C41.52 77.3627 41.6933 77.6427 41.9013 77.896C41.92 77.9067 41.9466 77.8854 41.9386 77.8667Z" fill="#263238"/>
<path d="M37.112 72.6374C36.7957 72.5948 36.4764 72.5787 36.1574 72.5894C35.8374 72.5894 35.5174 72.5894 35.2 72.6107C35.1968 72.6095 35.1933 72.6091 35.1899 72.6095C35.1865 72.61 35.1832 72.6112 35.1804 72.6132C35.1776 72.6151 35.1753 72.6178 35.1737 72.6208C35.1721 72.6239 35.1713 72.6272 35.1713 72.6307C35.1713 72.6341 35.1721 72.6375 35.1737 72.6406C35.1753 72.6436 35.1776 72.6462 35.1804 72.6482C35.1832 72.6502 35.1865 72.6514 35.1899 72.6519C35.1933 72.6523 35.1968 72.6519 35.2 72.6507C35.5227 72.6267 35.8454 72.6214 36.1707 72.6267C36.496 72.632 36.7947 72.6614 37.1094 72.6534C37.12 72.6507 37.1227 72.6374 37.112 72.6374Z" fill="#263238"/>
<path d="M39.9174 73.3573C39.952 73.0507 39.992 72.744 40.056 72.4453C40.056 72.416 40.0214 72.4053 40.016 72.4453C39.9707 72.7467 39.912 73.0453 39.8694 73.3467C39.8454 73.496 39.8267 73.648 39.808 73.7973C39.7798 73.9377 39.7672 74.0808 39.7707 74.224C39.7707 74.2311 39.7735 74.2379 39.7785 74.2429C39.7835 74.2479 39.7903 74.2507 39.7974 74.2507C39.8044 74.2507 39.8112 74.2479 39.8162 74.2429C39.8212 74.2379 39.824 74.2311 39.824 74.224C39.85 74.084 39.8651 73.9423 39.8694 73.8C39.8827 73.6453 39.8987 73.5013 39.9174 73.3573Z" fill="#263238"/>
<path d="M39.328 69.976C39.2507 70.272 39.1733 70.5734 39.1173 70.8747C39.0907 71.0294 39.0667 71.1814 39.0453 71.336C39.0183 71.4855 39.0085 71.6376 39.016 71.7894C39.016 71.7894 39.0347 71.7894 39.04 71.7894C39.0752 71.6485 39.0984 71.5048 39.1093 71.36C39.1307 71.2107 39.152 71.064 39.1787 70.9147C39.232 70.6027 39.288 70.296 39.368 69.9894C39.3733 69.9627 39.336 69.9494 39.328 69.976Z" fill="#263238"/>
<path d="M27.6933 88.0986C27.6453 87.536 27.5893 86.9733 27.5307 86.4106C27.4133 85.2978 27.2791 84.1866 27.128 83.0773C26.9787 81.9733 26.8373 80.864 26.6587 79.7626C26.5922 79.2509 26.4779 78.7464 26.3173 78.256C26.2592 78.0458 26.1538 77.8517 26.0091 77.6885C25.8645 77.5254 25.6844 77.3975 25.4827 77.3146C24.432 76.952 23.7227 78.0426 23.2987 78.8133C23.2853 78.8373 23.32 78.8533 23.3333 78.832C23.6 78.4693 24.2907 77.4426 25.088 77.4986C25.6213 77.5306 26.0533 77.9093 26.312 79.248C26.9547 82.5813 27.5333 89.3493 27.6 89.792C27.6347 90.024 27.8 90.016 27.8027 89.7626C27.8053 89.2026 27.7333 88.648 27.6933 88.0986Z" fill="#263238"/>
<path d="M23.5814 78.4C23.5814 78.4 24.5014 75.1547 22.4694 76.776C19.088 79.4667 18.968 85.352 18.968 85.352C18.968 85.352 24.9787 81.8667 25.728 79.5574C26.84 76.128 23.5814 78.4 23.5814 78.4Z" fill="#4898C6"/>
<path d="M24.7199 80C24.2479 80.096 23.7706 80.1573 23.2933 80.2267L22.6159 80.3227L22.1573 80.376C22.6053 79.76 23.0559 79.144 23.4906 78.5093C23.5066 78.4853 23.4693 78.4613 23.4506 78.48C23.0951 78.8485 22.7595 79.2357 22.4453 79.64L22.1786 78.888C22.0746 78.5973 21.9653 78.3067 21.8906 78.008C21.8906 77.9813 21.8453 78.008 21.8533 78.008C21.9359 78.3067 21.9919 78.6107 22.0719 78.9067C22.1519 79.2027 22.2373 79.48 22.3386 79.76C22.1199 80.0453 21.9066 80.3387 21.7013 80.6347C21.5999 80.3413 21.4693 80.0587 21.3786 79.76C21.3786 79.736 21.3333 79.7467 21.3413 79.76C21.4479 80.0907 21.5066 80.432 21.6079 80.7627C21.4693 80.9653 21.3333 81.168 21.1999 81.3707C20.9573 81.7467 20.7279 82.128 20.5039 82.512C20.487 82.5198 20.4729 82.5328 20.4638 82.5491C20.4547 82.5654 20.451 82.5841 20.4533 82.6027C20.0719 83.2587 19.7119 83.936 19.3546 84.6C19.3546 84.6213 19.3786 84.6427 19.3893 84.6187C19.7466 83.9547 20.1439 83.3067 20.5573 82.672C20.6205 82.6522 20.6858 82.6397 20.7519 82.6347L20.9599 82.5893L21.4239 82.4773C21.7279 82.4 22.0293 82.328 22.3413 82.2747C22.3653 82.2747 22.3413 82.232 22.3279 82.2373C21.9653 82.3067 21.5999 82.3467 21.2319 82.3893C21.0586 82.4107 20.8853 82.432 20.7119 82.4587H20.6879C20.9039 82.1307 21.1226 81.8027 21.3439 81.4827C21.5653 81.1627 21.7866 80.8507 22.0133 80.5387C22.2213 80.5093 22.4293 80.456 22.6346 80.416L23.3333 80.28C23.7973 80.1893 24.2613 80.0827 24.7279 80.0133C24.7573 80.0267 24.7466 80 24.7199 80Z" fill="#263238"/>
<path d="M21.1067 80.312L21.0267 80.0453C20.9714 79.87 20.9252 79.692 20.888 79.512C20.888 79.488 20.8453 79.4987 20.8507 79.512C20.888 79.696 20.9333 79.88 20.9733 80.0613C21.0126 80.2428 21.0652 80.421 21.1307 80.5947C21.135 80.6019 21.1415 80.6074 21.1493 80.6104C21.1571 80.6134 21.1657 80.6137 21.1737 80.6112C21.1817 80.6088 21.1887 80.6037 21.1934 80.5968C21.1982 80.59 21.2005 80.5817 21.2 80.5733C21.1733 80.4933 21.1387 80.4027 21.1067 80.312Z" fill="#263238"/>
<path d="M25.3333 79.24C25.0666 79.2827 24.7813 79.3013 24.5066 79.3253C24.232 79.3493 23.9546 79.3867 23.68 79.4293C23.664 79.4293 23.664 79.4533 23.68 79.4533C23.9466 79.4347 24.232 79.4133 24.5066 79.376C24.7813 79.3387 25.056 79.2987 25.3333 79.28C25.3626 79.28 25.36 79.2373 25.3333 79.24Z" fill="#263238"/>
<path d="M32.1174 84C32.0107 81.6 31.8507 79.2267 31.6187 76.848C31.4987 75.6613 31.3654 74.4773 31.1974 73.2987C31.0487 72.1404 30.8206 70.9937 30.5147 69.8667C30.3011 68.9905 29.9119 68.1668 29.3707 67.4453C29.1028 67.0953 28.7503 66.8192 28.3463 66.6429C27.9424 66.4666 27.5002 66.3958 27.0614 66.4373C26.0161 66.5653 25.1734 67.224 24.4454 67.9413C23.6294 68.7413 22.8801 69.6213 22.1227 70.48C21.9307 70.6969 21.7414 70.9156 21.5547 71.136C21.5361 71.1547 21.5547 71.1813 21.5841 71.1627C22.3227 70.312 23.0907 69.488 23.8961 68.6987C24.6401 67.968 25.4054 67.1707 26.4347 66.8693C26.9128 66.7167 27.4247 66.7047 27.9094 66.8347C28.2943 66.9576 28.6413 67.177 28.9174 67.472C29.4663 68.1082 29.8557 68.866 30.0534 69.6827C30.6961 71.8773 30.9254 74.1813 31.1627 76.448C31.4001 78.7147 31.5707 81.0613 31.6961 83.3813C31.8214 85.7013 31.9041 88.0347 32.1281 90.3547C32.1547 90.64 32.1921 90.9253 32.2294 91.2107C32.2534 91.4027 32.5521 91.4027 32.5361 91.2107C32.3334 88.8 32.2241 86.4 32.1174 84Z" fill="#263238"/>
<path d="M24.3147 68.1867C24.3147 68.1867 25.6773 65.6614 24.0667 64.8507C22.456 64.04 17.0667 70.064 15.4827 78.8694C15.4827 78.8694 24.1973 75.016 27.1547 71.1734C30.112 67.3307 26.76 66.4854 24.3147 68.1867Z" fill="#4898C6"/>
<path d="M25.6 70.24C24.6214 70.24 23.6454 70.1653 22.6667 70.1733L23.2 69.5413C23.4743 69.2623 23.7299 68.9657 23.9654 68.6533C23.9654 68.632 23.9494 68.6026 23.9307 68.6186C23.6696 68.8487 23.4254 69.0974 23.2 69.3626L22.4667 70.1466C22.0934 70.552 21.728 70.9626 21.36 71.376V70.744C21.36 70.4106 21.36 70.08 21.36 69.7466C21.36 69.0746 21.36 68.3973 21.4107 67.7253C21.4107 67.6986 21.3734 67.7013 21.3707 67.7253C21.3254 68.4 21.2534 69.0746 21.2214 69.7493C21.2054 70.0826 21.1974 70.4133 21.192 70.7466C21.192 70.9173 21.192 71.0906 21.192 71.2613C21.192 71.3546 21.192 71.4533 21.192 71.5493L21.0187 71.7413C20.2374 72.6346 19.4934 73.56 18.7707 74.4986C18.7707 74.448 18.7707 74.3946 18.7707 74.344C18.7707 74.24 18.7467 74.136 18.736 74.032C18.712 73.808 18.68 73.584 18.6454 73.36C18.6107 73.136 18.5814 72.9413 18.5467 72.7306C18.4966 72.4954 18.4583 72.2577 18.432 72.0186C18.4332 72.0154 18.4336 72.012 18.4332 72.0085C18.4328 72.0051 18.4315 72.0019 18.4295 71.999C18.4276 71.9962 18.425 71.9939 18.4219 71.9923C18.4189 71.9907 18.4155 71.9899 18.412 71.9899C18.4086 71.9899 18.4052 71.9907 18.4022 71.9923C18.3991 71.9939 18.3965 71.9962 18.3945 71.999C18.3926 72.0019 18.3913 72.0051 18.3909 72.0085C18.3904 72.012 18.3908 72.0154 18.392 72.0186C18.4329 72.256 18.4605 72.4955 18.4747 72.736C18.4934 72.952 18.5147 73.168 18.5334 73.384C18.552 73.6 18.5734 73.816 18.5947 74.0293C18.5947 74.1333 18.6134 74.2373 18.6267 74.3413C18.6267 74.392 18.6267 74.4453 18.6454 74.496C18.6485 74.5395 18.6622 74.5816 18.6854 74.6186L18.3147 75.1066C17.8214 75.76 17.336 76.4213 16.8507 77.0826C16.8347 77.1013 16.864 77.1306 16.88 77.1093C17.3387 76.5093 17.8107 75.9226 18.2907 75.3386C18.648 75.3546 19.0134 75.3386 19.3734 75.3226C19.7334 75.3066 20.128 75.3226 20.5067 75.3226C20.5334 75.3226 20.5307 75.2826 20.5067 75.2826C20.128 75.2826 19.7494 75.2826 19.3734 75.2826C18.9974 75.2826 18.6774 75.2826 18.3307 75.2826C18.752 74.768 19.1787 74.2613 19.6054 73.752L20.0747 73.1973C20.2196 73.2173 20.3661 73.2227 20.512 73.2133H21.0267L21.992 73.2C22.656 73.2 23.3254 73.1653 23.9867 73.1653C23.992 73.1653 23.9971 73.1632 24.0008 73.1595C24.0046 73.1557 24.0067 73.1506 24.0067 73.1453C24.0067 73.14 24.0046 73.1349 24.0008 73.1312C23.9971 73.1274 23.992 73.1253 23.9867 73.1253C23.32 73.1253 22.6534 73.088 21.9894 73.072C21.6667 73.072 21.344 73.0506 21.0214 73.048H20.5067C20.408 73.048 20.3094 73.048 20.208 73.048C20.5743 72.6142 20.9405 72.1804 21.3067 71.7466C21.3165 71.7444 21.3257 71.7398 21.3334 71.7333C21.6907 71.312 22.0454 70.8906 22.4 70.4746C22.448 70.416 22.4987 70.36 22.5494 70.304C23.5654 70.336 24.5787 70.2693 25.592 70.288C25.5984 70.289 25.6049 70.2875 25.6102 70.2838C25.6154 70.28 25.619 70.2743 25.62 70.268C25.6211 70.2616 25.6196 70.2551 25.6158 70.2498C25.6121 70.2446 25.6064 70.241 25.6 70.24Z" fill="#263238"/>
<path d="M25.0933 71.9707H24.856C24.832 71.9707 24.8347 72.0054 24.856 72.008H25.0933C25.12 72 25.12 71.9707 25.0933 71.9707Z" fill="#263238"/>
<path d="M24.5653 71.9733C24.2533 71.9733 23.9386 71.9733 23.624 71.9546L23.1546 71.9386C23.0095 71.9199 22.8625 71.9199 22.7173 71.9386C22.7013 71.9386 22.7173 71.9653 22.7173 71.968C22.862 71.9974 23.0099 72.0081 23.1573 72H23.6266C23.9413 72 24.2533 72 24.568 72C24.5946 72.0133 24.592 71.9733 24.5653 71.9733Z" fill="#263238"/>
<path d="M21.8267 74.9147C21.1901 74.809 20.5466 74.7511 19.9014 74.7413V74.7547C20.5414 74.816 21.1814 74.8507 21.8187 74.9547C21.8427 74.9573 21.8667 74.9173 21.8267 74.9147Z" fill="#263238"/>
<path d="M19.2 72.112C19.2 72.056 19.2 72 19.1786 71.944C19.1626 71.816 19.144 71.6774 19.1226 71.5654C19.0853 71.3254 19.0453 71.088 19 70.8507C18.9984 70.8466 18.9957 70.8431 18.9921 70.8406C18.9886 70.8381 18.9843 70.8368 18.98 70.8368C18.9756 70.8368 18.9714 70.8381 18.9678 70.8406C18.9642 70.8431 18.9615 70.8466 18.96 70.8507C18.9893 71.096 19.016 71.344 19.04 71.592C19.04 71.712 19.0586 71.8347 19.0693 71.9547C19.0657 72.0715 19.0828 72.1879 19.12 72.2987C19.1235 72.3067 19.1294 72.3134 19.1367 72.3182C19.144 72.3229 19.1526 72.3254 19.1613 72.3254C19.17 72.3254 19.1786 72.3229 19.1859 72.3182C19.1932 72.3134 19.199 72.3067 19.2026 72.2987C19.2145 72.2369 19.2136 72.1734 19.2 72.112Z" fill="#263238"/>
<path d="M32.032 64.944C31.72 64.3627 31.3227 63.6107 30.544 63.6453C29.9014 63.6853 29.6107 64.3413 29.4774 64.8827C29.0534 66.56 29.0214 68.328 28.944 70.048C28.7707 73.68 28.6134 77.3147 28.5894 80.952C28.5894 81.96 28.5894 82.968 28.5894 83.976C28.5894 85.0027 28.5894 86.0373 28.6614 87.064C28.6614 87.0838 28.6692 87.1028 28.6832 87.1168C28.6972 87.1308 28.7162 87.1387 28.736 87.1387C28.7558 87.1387 28.7748 87.1308 28.7888 87.1168C28.8028 87.1028 28.8107 87.0838 28.8107 87.064C28.8107 86.184 28.7867 85.304 28.784 84.424C28.7814 83.544 28.784 82.7067 28.8 81.8507C28.8267 80.112 28.8729 78.3742 28.9387 76.6373C29.0027 74.9093 29.08 73.184 29.152 71.4587C29.1894 70.5947 29.224 69.7333 29.264 68.8693C29.304 68.0053 29.3387 67.1973 29.4347 66.368C29.488 65.9013 29.5547 65.4347 29.6534 64.976C29.7019 64.6353 29.8409 64.3139 30.056 64.0453C30.2048 63.8991 30.4008 63.8106 30.6088 63.7954C30.8169 63.7803 31.0236 63.8395 31.192 63.9627C31.5437 64.2203 31.82 64.5674 31.992 64.968C32 64.9893 32.0427 64.968 32.032 64.944Z" fill="#263238"/>
<path d="M31.8214 64.6667C31.8214 64.6667 31.1814 62.4053 32.5947 63.536C34.9494 65.4187 35.0347 69.5093 35.0347 69.5093C35.0347 69.5093 30.848 67.0773 30.3254 65.4747C29.552 63.0853 31.8214 64.6667 31.8214 64.6667Z" fill="#4898C6"/>
<path d="M34.152 67.832C34.1147 67.7707 34.0747 67.7093 34.0347 67.648C34.04 67.5832 34.04 67.5181 34.0347 67.4533C34.0347 67.3573 34.0347 67.2587 34.0347 67.1627C34.0347 66.9707 34.0347 66.7813 34.056 66.5893C34.056 66.5653 34.016 66.5653 34.016 66.5893C34.0053 66.7671 33.9973 66.9538 33.992 67.1493V67.432C33.992 67.4693 33.992 67.5093 33.992 67.552C33.8267 67.2853 33.6587 67.0453 33.4827 66.7947L33.328 66.5813C33.308 66.3364 33.308 66.0903 33.328 65.8453C33.328 65.5787 33.328 65.312 33.344 65.0453C33.344 65.0213 33.304 65.0213 33.304 65.0453C33.304 65.312 33.2827 65.5787 33.2693 65.864C33.2534 66.0582 33.248 66.2532 33.2533 66.448C32.848 65.8987 32.4213 65.368 31.9867 64.848C31.9707 64.832 31.9413 64.848 31.9547 64.8747C32.2213 65.2133 32.488 65.5627 32.7333 65.9173C32.24 65.8027 31.7413 65.736 31.24 65.664C31.2133 65.664 31.2053 65.6987 31.24 65.7013C31.7733 65.7813 32.2907 65.9147 32.8133 66.032C33.0133 66.3147 33.2133 66.5973 33.4107 66.8827C33.4907 66.9973 33.568 67.1173 33.648 67.232H33.6L33.4373 67.2107C33.3227 67.1973 33.2053 67.1867 33.088 67.1787C32.848 67.16 32.6053 67.1467 32.3653 67.1333C32.3387 67.1333 32.3387 67.1733 32.3653 67.1733C32.6027 67.1733 32.84 67.1973 33.0773 67.2213L33.4507 67.2667L33.616 67.288H33.664C33.7973 67.488 33.9307 67.6853 34.0667 67.8827C34.3013 68.232 34.512 68.6053 34.7653 68.9493C34.7682 68.9536 34.7726 68.9565 34.7776 68.9575C34.7826 68.9585 34.7878 68.9575 34.792 68.9547C34.7963 68.9518 34.7992 68.9474 34.8002 68.9424C34.8012 68.9374 34.8002 68.9322 34.7974 68.928C34.6039 68.5503 34.3885 68.1843 34.152 67.832Z" fill="#263238"/>
<path d="M33.1093 65.28C33.1093 65.192 33.1093 65.104 33.1093 65.0133C33.1045 64.8282 33.1116 64.6429 33.1307 64.4587C33.1307 64.4293 33.0933 64.4267 33.0907 64.4587C33.0907 64.64 33.072 64.824 33.064 65.0053C33.064 65.0987 33.064 65.1893 33.064 65.272V65.4C33.056 65.4432 33.056 65.4875 33.064 65.5307C33.0654 65.5341 33.0678 65.5371 33.0709 65.5392C33.074 65.5413 33.0776 65.5424 33.0813 65.5424C33.0851 65.5424 33.0887 65.5413 33.0918 65.5392C33.0949 65.5371 33.0973 65.5341 33.0987 65.5307C33.104 65.49 33.104 65.4487 33.0987 65.408C33.112 65.3707 33.1093 65.3333 33.1093 65.28Z" fill="#263238"/>
<path d="M32.5919 66.216C32.4373 66.1893 32.2773 66.1813 32.1199 66.168C31.9626 66.1547 31.7759 66.1387 31.6026 66.1147C31.5994 66.1135 31.5959 66.1131 31.5925 66.1135C31.5891 66.1139 31.5858 66.1152 31.583 66.1172C31.5802 66.1191 31.5779 66.1217 31.5763 66.1248C31.5747 66.1278 31.5739 66.1312 31.5739 66.1347C31.5739 66.1381 31.5747 66.1415 31.5763 66.1446C31.5779 66.1476 31.5802 66.1502 31.583 66.1522C31.5858 66.1542 31.5891 66.1554 31.5925 66.1558C31.5959 66.1563 31.5994 66.1559 31.6026 66.1547C31.9333 66.176 32.2613 66.2347 32.5919 66.248C32.5962 66.248 32.6003 66.2463 32.6033 66.2433C32.6063 66.2403 32.6079 66.2363 32.6079 66.232C32.6079 66.2278 32.6063 66.2237 32.6033 66.2207C32.6003 66.2177 32.5962 66.216 32.5919 66.216Z" fill="#263238"/>
<path d="M33.9093 66.2293C33.9093 66.2453 33.9093 66.296 33.9093 66.3173V66.5467C33.9093 66.6 33.9093 66.6533 33.9093 66.7066C33.8999 66.7515 33.8999 66.7978 33.9093 66.8427C33.9093 66.8427 33.9093 66.8427 33.9253 66.8427C33.9307 66.8217 33.9307 66.7996 33.9253 66.7787V66.3146C33.9253 66.2933 33.9253 66.248 33.9253 66.2293C33.9253 66.2107 33.88 66.192 33.9093 66.2293Z" fill="#263238"/>
<path d="M32.128 77.0027C31.248 76.344 30.456 75.4027 29.272 75.3467C28.2933 75.3067 27.6107 76.0427 27.2187 76.864C27.0204 77.2992 26.8599 77.7507 26.7387 78.2133C26.5627 78.832 26.3947 79.4533 26.24 80.08C25.9334 81.3093 25.6693 82.5467 25.456 83.7947C25.336 84.4907 25.2267 85.1893 25.1387 85.888C25.0256 86.5941 24.957 87.3066 24.9333 88.0213C24.9354 88.0473 24.9465 88.0717 24.9647 88.0904C24.9828 88.109 25.0069 88.1208 25.0328 88.1237C25.0587 88.1265 25.0847 88.1202 25.1065 88.1059C25.1282 88.0916 25.1443 88.0702 25.152 88.0453C25.2693 87.4587 25.32 86.856 25.4187 86.264C25.5173 85.672 25.5973 85.0747 25.6853 84.48C25.888 83.296 26.12 82.112 26.3867 80.9413C26.6533 79.832 26.888 78.7067 27.2453 77.6293C27.512 76.856 27.912 75.952 28.7493 75.6747C30.0187 75.2507 31.1733 76.328 32.104 77.024C32.12 77.048 32.1494 77.0187 32.128 77.0027Z" fill="#263238"/>
<path d="M31.216 76.3706C31.216 76.3706 30.416 74.0533 31.5787 73.6C33.3387 72.9173 37.944 78.104 37.0427 86.0533C37.0427 86.0533 33.4854 84.0933 30.856 81.888C28.2267 79.6826 27.5574 76.8026 28.7227 76.056C29.888 75.3093 31.216 76.3706 31.216 76.3706Z" fill="#4898C6"/>
<path d="M36.5119 84.3493C36.3883 84.0726 36.2449 83.8053 36.0826 83.5493C35.9333 83.2826 35.7813 83.016 35.6239 82.7493C35.3173 82.216 35.0133 81.7013 34.7013 81.184C34.6506 81.0986 34.5973 81.016 34.5466 80.9333C34.5466 80.9013 34.5466 80.8693 34.5653 80.84C34.5839 80.7626 34.5999 80.6853 34.6186 80.608C34.6559 80.4373 34.6879 80.2613 34.7199 80.0746C34.7839 79.736 34.8426 79.392 34.9333 79.056C34.9333 79.032 34.8986 79.024 34.8933 79.056C34.8213 79.3946 34.7146 79.7306 34.6266 80.0613C34.5786 80.2266 34.5253 80.3893 34.4826 80.5546C34.4666 80.6106 34.4533 80.6693 34.4373 80.7253C34.0586 80.104 33.6746 79.488 33.2586 78.8906C33.2853 78.8088 33.2997 78.7234 33.3013 78.6373C33.3013 78.52 33.3279 78.4053 33.3413 78.288C33.3706 78.0213 33.4026 77.7547 33.4399 77.504C33.5067 76.9919 33.6002 76.4836 33.7199 75.9813C33.7199 75.9573 33.6853 75.9493 33.6799 75.9813C33.5519 76.48 33.4133 76.9813 33.3199 77.488C33.2719 77.7386 33.2293 77.9866 33.1946 78.2373C33.1786 78.3653 33.1653 78.4906 33.1519 78.616C33.1519 78.6533 33.1519 78.6906 33.1519 78.7306C33.0239 78.5493 32.8853 78.3706 32.7626 78.1973C32.3546 77.664 31.9359 77.1306 31.5093 76.6186C31.4933 76.6 31.4613 76.6186 31.4773 76.6426C32.2053 77.5771 32.8733 78.5569 33.4773 79.576C33.5946 79.7626 33.7093 79.9493 33.8239 80.1386L33.7093 80.1226C33.5599 80.104 33.4106 80.096 33.2613 80.08L32.3626 80.0026C31.7626 79.9546 31.1626 79.92 30.5626 79.856C30.5386 79.856 30.5306 79.8906 30.5626 79.8933C31.1679 79.9626 31.7706 80.0613 32.3759 80.1466C32.6719 80.1893 32.9679 80.2293 33.2666 80.2666C33.4921 80.3131 33.7217 80.3363 33.9519 80.336L34.6586 81.4853C34.6053 81.4826 34.5519 81.4826 34.4986 81.4853H33.5999C33.2133 81.4853 32.8293 81.4853 32.4426 81.4853C32.4159 81.4853 32.4213 81.5253 32.4426 81.5253C32.8346 81.5253 33.2239 81.5493 33.6159 81.5707L34.1706 81.6026L34.4373 81.624C34.5179 81.643 34.6019 81.643 34.6826 81.624C34.8826 81.9493 35.0853 82.2746 35.2826 82.6C35.4799 82.9253 35.6533 83.2 35.8453 83.4986C36.0222 83.8153 36.2237 84.1175 36.4479 84.4026C36.4879 84.3866 36.5333 84.3733 36.5119 84.3493Z" fill="#263238"/>
<path d="M34.816 77.9253C34.7801 78.1803 34.7266 78.4324 34.656 78.68C34.592 78.9466 34.5146 79.1947 34.432 79.4453C34.4294 79.4487 34.4277 79.4526 34.427 79.4568C34.4263 79.461 34.4266 79.4652 34.4279 79.4693C34.4291 79.4733 34.4313 79.477 34.4343 79.48C34.4372 79.483 34.4409 79.4853 34.4449 79.4866C34.4489 79.4879 34.4531 79.4883 34.4573 79.4877C34.4615 79.487 34.4655 79.4854 34.4689 79.483C34.4723 79.4805 34.4751 79.4772 34.477 79.4735C34.479 79.4697 34.48 79.4655 34.48 79.4613C34.56 79.2107 34.6293 78.9573 34.6906 78.704C34.752 78.4507 34.792 78.1867 34.856 77.9333C34.8613 77.9067 34.8186 77.8987 34.816 77.9253Z" fill="#263238"/>
<path d="M32.2 79.4667C32.1469 79.4202 32.0786 79.3946 32.008 79.3947L31.672 79.3494C31.464 79.32 31.2533 79.2987 31.0453 79.272C30.6133 79.2214 30.1787 79.1814 29.744 79.1254C29.72 79.1254 29.712 79.1627 29.744 79.1654C30.152 79.216 30.56 79.2774 30.968 79.3307L31.568 79.408L31.856 79.44C31.9684 79.4422 32.0798 79.461 32.1867 79.496C32.2 79.5174 32.216 79.4907 32.2 79.4667Z" fill="#263238"/>
<path d="M34.808 82.9733C34.6053 82.9547 34.3973 82.9493 34.192 82.9413H33.8826H33.7333C33.6686 82.9481 33.6034 82.9481 33.5386 82.9413C33.5093 82.9413 33.5066 82.9867 33.5386 82.9813C33.5989 82.9747 33.6597 82.9747 33.72 82.9813H33.88L34.192 83C34.3946 83 34.6026 83.024 34.808 83.024C34.8147 83.024 34.8211 83.0213 34.8259 83.0166C34.8306 83.0118 34.8333 83.0054 34.8333 82.9987C34.8333 82.992 34.8306 82.9855 34.8259 82.9808C34.8211 82.976 34.8147 82.9733 34.808 82.9733Z" fill="#263238"/>
<path d="M36.064 82.0827C36.088 81.968 36.1094 81.8507 36.1307 81.7334C36.1734 81.504 36.2134 81.2747 36.256 81.048C36.2545 81.0439 36.2518 81.0404 36.2482 81.0379C36.2446 81.0354 36.2404 81.0341 36.236 81.0341C36.2317 81.0341 36.2274 81.0354 36.2239 81.0379C36.2203 81.0404 36.2175 81.0439 36.216 81.048C36.1654 81.272 36.1174 81.4934 36.0667 81.7174C36.04 81.8294 36.016 81.9414 35.992 82.0534L35.96 82.208C35.9432 82.2605 35.9368 82.3158 35.9414 82.3707C35.9414 82.3894 35.9734 82.4054 35.9867 82.3867C36.031 82.291 36.0573 82.1879 36.064 82.0827Z" fill="#263238"/>
<path d="M34.3333 88.9333L34.136 92.2187L33.552 101.915H23.608L23.0213 92.2187L22.824 88.9333H34.3333Z" fill="#455A64"/>
<path d="M34.3333 88.9333L34.136 92.2187H23.0213L22.824 88.9333H34.3333Z" fill="#263238"/>
<path d="M35.2506 86.608H21.9066V89.896H35.2506V86.608Z" fill="#455A64"/>
<path d="M168.803 70.592H94.776V118.453H168.803V70.592Z" fill="#4898C6"/>
<path d="M145.475 65.6346H168.803V70.592H144.133L145.475 65.6346Z" fill="#4898C6"/>
<g opacity="0.1">
<path d="M168.803 70.592H94.776V118.453H168.803V70.592Z" fill="black"/>
<path d="M145.475 65.6346H168.803V70.592H144.133L145.475 65.6346Z" fill="black"/>
</g>
<path d="M106.381 39.12C106.202 38.3463 106.202 37.5417 106.381 36.768C106.477 37.1525 106.522 37.5479 106.515 37.944C106.52 38.3401 106.476 38.7353 106.381 39.12Z" fill="#263238"/>
<path d="M108.776 39.8106C108.886 39.4302 109.045 39.0655 109.248 38.7253C109.44 38.3789 109.675 38.0589 109.949 37.7733C109.84 38.1542 109.681 38.5191 109.477 38.8587C109.285 39.2048 109.05 39.5247 108.776 39.8106Z" fill="#263238"/>
<path d="M110.507 41.6C110.792 41.3258 111.111 41.0892 111.456 40.896C111.794 40.6958 112.156 40.5381 112.533 40.4267C111.956 40.9664 111.263 41.3677 110.507 41.6Z" fill="#263238"/>
<path d="M111.107 44.024C111.491 43.9309 111.885 43.8861 112.28 43.8907C112.676 43.8836 113.072 43.9284 113.456 44.024C113.072 44.117 112.678 44.1618 112.283 44.1574C111.887 44.1631 111.491 44.1183 111.107 44.024Z" fill="#263238"/>
<path d="M110.416 46.4213C110.796 46.5308 111.161 46.6886 111.501 46.8907C111.847 47.0845 112.167 47.321 112.453 47.5947C111.695 47.3618 110.998 46.9607 110.416 46.4213Z" fill="#263238"/>
<path d="M108.621 48.1494C108.895 48.4361 109.131 48.7559 109.325 49.1014C109.528 49.4406 109.687 49.8044 109.797 50.184C109.255 49.6044 108.853 48.9084 108.621 48.1494Z" fill="#263238"/>
<path d="M106.2 48.7493C106.38 49.523 106.38 50.3276 106.2 51.1013C106.104 50.7168 106.06 50.3215 106.067 49.9253C106.061 49.5293 106.106 49.1341 106.2 48.7493Z" fill="#263238"/>
<path d="M103.805 48.0587C103.695 48.4391 103.536 48.8038 103.333 49.144C103.142 49.4914 102.906 49.8123 102.632 50.0987C102.742 49.7174 102.901 49.3518 103.104 49.0107C103.298 48.6657 103.533 48.346 103.805 48.0587Z" fill="#263238"/>
<path d="M102.077 46.264C101.791 46.5376 101.471 46.7742 101.125 46.968C100.786 47.173 100.421 47.3326 100.04 47.4426C100.622 46.9017 101.318 46.4988 102.077 46.264Z" fill="#263238"/>
<path d="M101.477 43.8454C101.092 43.9383 100.697 43.9831 100.301 43.9787C99.9054 43.9854 99.5102 43.9414 99.1254 43.848C99.51 43.7529 99.9052 43.7072 100.301 43.712C100.697 43.7076 101.092 43.7524 101.477 43.8454Z" fill="#263238"/>
<path d="M102.165 41.4507C101.785 41.3397 101.42 41.1812 101.08 40.9787C100.735 40.7849 100.415 40.5494 100.128 40.2773C100.508 40.3869 100.873 40.5446 101.213 40.7467C101.56 40.9392 101.88 41.1758 102.165 41.4507Z" fill="#263238"/>
<path d="M103.963 39.7333C103.689 39.4482 103.452 39.1292 103.259 38.784C103.054 38.4445 102.894 38.0797 102.784 37.6987C103.059 37.9842 103.296 38.3042 103.488 38.6507C103.691 38.9904 103.85 39.3541 103.963 39.7333Z" fill="#263238"/>
<path d="M163.595 47.248H115.448V109.051H163.595V47.248Z" fill="#EBEBEB"/>
<path d="M163.592 109.051L115.448 109.136H115.363V109.051L115.317 47.248V47.1173H115.448L163.592 47.1466H163.693V47.248L163.592 109.051ZM163.592 109.051L163.493 47.248L163.592 47.3466L115.448 47.3786L115.579 47.248L115.531 109.051L115.448 108.968L163.592 109.051Z" fill="#DBDBDB"/>
<path d="M120.715 60.456L139.52 60.408L158.325 60.456L139.52 60.504L120.715 60.456Z" fill="#C7C7C7"/>
<path d="M120.715 61.9893L139.52 61.9413L158.325 61.9893L139.52 62.0373L120.715 61.9893Z" fill="#C7C7C7"/>
<path d="M120.715 63.5254L139.52 63.4774L158.325 63.5254L139.52 63.5707L120.715 63.5254Z" fill="#C7C7C7"/>
<path d="M120.715 65.0587L139.52 65.0107L158.325 65.0587L139.52 65.1067L120.715 65.0587Z" fill="#C7C7C7"/>
<path d="M120.715 66.592L139.52 66.544L158.325 66.592L139.52 66.64L120.715 66.592Z" fill="#C7C7C7"/>
<path d="M120.715 68.1253L139.52 68.0773L158.325 68.1253L139.52 68.1733L120.715 68.1253Z" fill="#C7C7C7"/>
<path d="M120.715 69.6587L139.52 69.6107L158.325 69.6587L139.52 69.7067L120.715 69.6587Z" fill="#C7C7C7"/>
<path d="M120.715 71.192L139.52 71.1467L158.325 71.192L139.52 71.24L120.715 71.192Z" fill="#C7C7C7"/>
<path d="M120.715 72.728L139.52 72.68L158.325 72.728L139.52 72.7733L120.715 72.728Z" fill="#C7C7C7"/>
<path d="M120.715 74.2613L139.52 74.2133L158.325 74.2613L139.52 74.3067L120.715 74.2613Z" fill="#C7C7C7"/>
<path d="M120.715 75.7946L139.52 75.7466L158.325 75.7946L139.52 75.8426L120.715 75.7946Z" fill="#C7C7C7"/>
<path d="M120.715 77.328L139.52 77.28L158.325 77.328L139.52 77.376L120.715 77.328Z" fill="#C7C7C7"/>
<path d="M120.715 78.8614L139.52 78.8134L158.325 78.8614L139.52 78.9094L120.715 78.8614Z" fill="#C7C7C7"/>
<path d="M120.715 80.3947L139.52 80.3494L158.325 80.3947L139.52 80.4427L120.715 80.3947Z" fill="#C7C7C7"/>
<path d="M120.715 81.928L139.52 81.8827L158.325 81.928L139.52 81.976L120.715 81.928Z" fill="#C7C7C7"/>
<path d="M127.544 77.28H124.691V83.7174H127.544V77.28Z" fill="#4898C6"/>
<path d="M132.835 73.848H129.981V83.7174H132.835V73.848Z" fill="#4898C6"/>
<path d="M138.125 70.0027H135.272V83.7173H138.125V70.0027Z" fill="#4898C6"/>
<path d="M143.419 68.352H140.565V83.7173H143.419V68.352Z" fill="#4898C6"/>
<path d="M148.709 65.4106H145.856V83.7173H148.709V65.4106Z" fill="#4898C6"/>
<path d="M154 62.504H151.147V83.7174H154V62.504Z" fill="#4898C6"/>
<path d="M121.733 59.3813L121.808 65.464L121.859 71.5493C121.893 75.6053 121.904 79.6613 121.912 83.7173L121.733 83.5413H130.883L140.029 83.5627L149.179 83.6213L158.325 83.7253L149.179 83.8293L140.029 83.888L130.883 83.9093H121.733H121.557V83.7333C121.557 79.6773 121.573 75.6213 121.608 71.5653L121.661 65.48L121.733 59.3813Z" fill="#C7C7C7"/>
<path d="M127.544 85.0027H124.691V85.2614H127.544V85.0027Z" fill="#C7C7C7"/>
<path d="M132.835 85.0027H129.981V85.2614H132.835V85.0027Z" fill="#C7C7C7"/>
<path d="M138.125 85.0027H135.272V85.2614H138.125V85.0027Z" fill="#C7C7C7"/>
<path d="M143.419 85.0027H140.565V85.2614H143.419V85.0027Z" fill="#C7C7C7"/>
<path d="M148.709 85.0027H145.856V85.2614H148.709V85.0027Z" fill="#C7C7C7"/>
<path d="M154 85.0027H151.147V85.2614H154V85.0027Z" fill="#C7C7C7"/>
<path d="M125.013 78.0933C126.407 78.0717 127.798 77.9658 129.179 77.776C130.558 77.5996 131.928 77.3531 133.283 77.0373C135.994 76.4272 138.625 75.5009 141.12 74.2773C143.621 73.0721 145.929 71.5001 147.965 69.6133L148.352 69.264L148.717 68.8933L149.445 68.1493C149.893 67.616 150.376 67.12 150.779 66.5493C151.642 65.4528 152.422 64.2941 153.115 63.0826H153.139C151.878 65.5925 150.202 67.8709 148.181 69.8213C147.174 70.8019 146.083 71.6941 144.923 72.488C143.769 73.2897 142.555 74.0029 141.293 74.6213C136.217 77.0528 130.635 78.2411 125.008 78.088L125.013 78.0933Z" fill="#263238"/>
<path d="M153.928 65.0826L153.533 65.1813L153.048 63.2346L151.141 63.8613L151.016 63.4746L153.336 62.712L153.928 65.0826Z" fill="#263238"/>
<path d="M119.909 94.8747H159.131V93.288H119.909V94.8747Z" fill="#DBDBDB"/>
<path d="M119.912 98.88H141.992V97.2933H119.912V98.88Z" fill="#DBDBDB"/>
<path d="M128.48 55.664H150.56V54.0773H128.48V55.664Z" fill="#DBDBDB"/>
<path d="M154.437 105.744L106.291 105.72L106.323 43.9174L142.069 43.936L154.461 55.7174L154.437 105.744Z" fill="#4898C6"/>
<path opacity="0.6" d="M154.437 105.744L106.291 105.72L106.323 43.9174L142.069 43.936L154.461 55.7174L154.437 105.744Z" fill="white"/>
<path d="M142.069 43.936L154.461 55.7173L142.064 55.712L142.069 43.936Z" fill="#4898C6"/>
<path opacity="0.4" d="M142.069 43.936L154.461 55.7173L142.064 55.712L142.069 43.936Z" fill="white"/>
<path d="M110.987 55.9467H137.755V54.36H110.987V55.9467Z" fill="white"/>
<path d="M111.015 59.8798L137.783 59.8939L137.783 58.3072L111.015 58.2932L111.015 59.8798Z" fill="white"/>
<path d="M111.009 63.8852L137.777 63.8992L137.777 62.3126L111.009 62.2985L111.009 63.8852Z" fill="white"/>
<path d="M111.005 67.8894L150.227 67.9099L150.228 66.3232L111.006 66.3027L111.005 67.8894Z" fill="white"/>
<path d="M111.005 71.8974L150.226 71.9179L150.227 70.3312L111.006 70.3107L111.005 71.8974Z" fill="white"/>
<path d="M111.004 75.9027L150.226 75.9232L150.226 74.3366L111.005 74.316L111.004 75.9027Z" fill="white"/>
<path d="M111.001 79.9081L150.222 79.9286L150.223 78.3419L111.002 78.3214L111.001 79.9081Z" fill="white"/>
<path d="M110.998 83.9134L150.219 83.9339L150.22 82.3472L110.999 82.3267L110.998 83.9134Z" fill="white"/>
<path d="M110.997 87.9214L150.219 87.9419L150.219 86.3552L110.998 86.3347L110.997 87.9214Z" fill="white"/>
<path d="M110.997 91.9267L150.218 91.9473L150.219 90.3606L110.998 90.3401L110.997 91.9267Z" fill="white"/>
<path d="M110.993 95.9294L150.215 95.9499L150.216 94.3632L110.994 94.3427L110.993 95.9294Z" fill="white"/>
<path d="M110.99 99.9347L150.212 99.9553L150.212 98.3686L110.991 98.3481L110.99 99.9347Z" fill="white"/>
<path d="M94.9493 118.453H168.976L174.069 74.5627H100.043L94.9493 118.453Z" fill="#4898C6"/>
<path d="M151.267 70.016H174.597L174.069 74.5627H149.4L151.267 70.016Z" fill="#4898C6"/>
<path d="M163.629 56.5573C162.777 55.8013 162.185 54.7951 161.939 53.6827C161.652 52.3267 161.891 50.9126 162.605 49.7253C162.952 49.1327 163.416 48.6177 163.97 48.2121C164.523 47.8066 165.155 47.5193 165.824 47.368L173.12 45.768L173.325 46.712L166.032 48.312C165.491 48.4349 164.982 48.6679 164.535 48.9964C164.088 49.3249 163.713 49.7418 163.435 50.2213C162.849 51.1983 162.653 52.3597 162.885 53.4747C163.392 55.7867 165.688 57.3333 167.899 56.8507L181.712 53.8267C182.573 53.6382 183.324 53.1154 183.8 52.3732C184.275 51.6311 184.437 50.7304 184.248 49.8693C184.06 49.0083 183.537 48.2573 182.795 47.7817C182.052 47.3062 181.152 47.1449 180.291 47.3333L166.931 50.2667C166.276 50.3983 165.693 50.769 165.296 51.3067C165.112 51.5652 164.986 51.8599 164.925 52.1713C164.864 52.4826 164.871 52.8034 164.944 53.112C165.237 54.4453 166.493 55.1813 167.936 54.8667L179.424 52.352L179.632 53.2987L168.144 55.8107C166.184 56.24 164.411 55.168 163.997 53.3173C163.584 51.4667 164.765 49.7493 166.723 49.3173L180.085 46.384C181.188 46.1655 182.332 46.3881 183.272 47.004C184.213 47.6198 184.874 48.5799 185.114 49.6779C185.354 50.776 185.154 51.9244 184.557 52.8766C183.96 53.8288 183.013 54.5089 181.92 54.7707L168.107 57.7947C167.316 57.9556 166.498 57.9274 165.72 57.7124C164.942 57.4973 164.225 57.1016 163.629 56.5573Z" fill="#455A64"/>
<path d="M158.683 44.3653C157.773 45.051 156.67 45.4317 155.531 45.4533C154.144 45.4659 152.804 44.9522 151.781 44.016C151.269 43.5597 150.856 43.0027 150.568 42.3796C150.28 41.7565 150.124 41.0808 150.109 40.3947L149.987 32.928L150.955 32.912L151.077 40.3787C151.09 40.9326 151.217 41.478 151.451 41.9805C151.685 42.4829 152.019 42.9317 152.435 43.2987C153.274 44.0694 154.375 44.4926 155.515 44.4827C157.883 44.4427 159.853 42.4987 159.816 40.2347L159.584 26.1013C159.57 25.2201 159.206 24.3806 158.573 23.7675C157.94 23.1544 157.089 22.8179 156.208 22.832C155.327 22.8462 154.487 23.2098 153.874 23.8429C153.261 24.476 152.925 25.3268 152.939 26.208L153.16 39.8853C153.159 40.5527 153.408 41.1964 153.856 41.6907C154.073 41.922 154.336 42.1043 154.629 42.2252C154.922 42.3462 155.238 42.4031 155.555 42.392C156.92 42.3707 157.891 41.2827 157.867 39.808L157.675 28.048L158.645 28.032L158.835 39.792C158.869 41.7947 157.464 43.3307 155.571 43.36C153.677 43.3893 152.227 41.904 152.192 39.8933L151.971 26.2187C151.951 25.6484 152.045 25.0798 152.247 24.5462C152.449 24.0125 152.756 23.5246 153.149 23.1109C153.542 22.6971 154.013 22.3659 154.536 22.1365C155.058 21.9072 155.621 21.7843 156.192 21.7751C156.763 21.7659 157.329 21.8705 157.859 22.0829C158.389 22.2952 158.871 22.611 159.277 23.0119C159.683 23.4127 160.005 23.8905 160.225 24.4173C160.444 24.9441 160.556 25.5093 160.555 26.08L160.784 40.2133C160.787 41.0222 160.598 41.8202 160.232 42.5419C159.867 43.2636 159.336 43.8885 158.683 44.3653Z" fill="#263238"/>
<path d="M43.9627 35.184C43.5041 37.8187 42.5121 40.9013 43.3147 43.5547C43.9467 45.632 45.6294 47.1893 47.4374 48.2827C51.4161 50.6827 57.2854 51.6827 60.7707 47.8747C62.1627 46.352 62.8081 42.896 61.0161 41.3733C60.0934 40.592 58.9174 40.288 57.8161 39.8373C57.1292 39.5814 56.5088 39.174 56.001 38.6454C55.4932 38.1168 55.111 37.4806 54.8827 36.784C53.8747 33.896 54.4001 31.9387 54.5147 28.968C54.5449 28.6738 54.513 28.3765 54.4211 28.0954C54.3293 27.8143 54.1795 27.5556 53.9814 27.336C53.56 26.7998 53.0003 26.3886 52.3627 26.1467C51.8336 25.827 51.2335 25.6438 50.6161 25.6133C49.2961 25.5813 47.8934 26.624 46.7921 27.2427C45.6907 27.8613 45.1067 28.6 44.8667 29.8693C44.5521 31.6427 44.2667 33.416 43.9627 35.184Z" fill="#263238"/>
<path d="M43.4667 36.3893C44.0427 33.9893 44.6614 31.632 45.2667 29.2533C45.2667 29.2373 45.2934 29.2533 45.2907 29.2533C44.8507 31.224 44.4347 33.2 43.9574 35.168C43.4987 37.0933 42.8907 39.0427 42.6081 41.0053C41.9627 45.4053 46.2694 47.7787 50.0481 48.0427C50.2214 48.0427 50.1814 48.3253 50.0081 48.3093C46.6987 47.9733 42.9041 46.344 42.3654 42.632C42.0907 40.6053 43.0054 38.3413 43.4667 36.3893Z" fill="#263238"/>
<path d="M54.3387 28.7093C54.3387 28.6994 54.3426 28.6899 54.3496 28.6829C54.3566 28.6759 54.3661 28.672 54.376 28.672C54.3859 28.672 54.3954 28.6759 54.4024 28.6829C54.4094 28.6899 54.4134 28.6994 54.4134 28.7093C54.2134 31.1493 53.752 33.976 54.864 36.2667C55.4127 37.3932 56.2893 38.3275 57.3787 38.9467C58.2427 39.4347 59.2053 39.5893 60.1333 39.8987C63.7653 41.104 63.16 46.1387 60.2027 47.7547C60.1413 47.7893 60.08 47.6827 60.1413 47.6453C62.24 46.3707 63.2187 43.6907 61.9253 41.4693C60.8853 39.6827 58.424 39.8933 56.8373 38.8027C53.5467 36.5333 53.816 32.224 54.3387 28.7093Z" fill="#263238"/>
<path d="M67.7867 117.488C67.1921 117.68 50.2961 117.461 49.6534 117.043C49.4081 116.888 49.2961 114.424 49.2454 111.443V111.349C49.2454 110.736 49.2267 110.104 49.2267 109.461C49.2267 109.373 49.2267 109.285 49.2267 109.195C49.2027 104.893 49.2721 100.429 49.2721 100.429L60.5761 100.541L60.2347 109.227V109.571L60.1681 111.368V111.552C60.1681 111.552 66.6001 114.528 67.2534 115.061C67.9067 115.595 68.3787 117.299 67.7867 117.488Z" fill="#FFC4C0"/>
<path d="M62.7093 112.709C62.664 112.709 62.64 112.685 62.6373 112.672L62.7093 112.709Z" fill="#4898C6"/>
<path d="M67.784 117.488C67.192 117.68 50.296 117.461 49.6507 117.043C49.4347 116.907 49.32 114.944 49.264 112.416C52.36 113.061 64.36 115.488 64.688 114.464C64.8187 114.059 63.792 113.363 63.1414 112.968C64.9147 113.813 66.8747 114.781 67.2267 115.064C67.8774 115.595 68.3787 117.299 67.784 117.488Z" fill="#4898C6"/>
<path d="M45.8027 51.7546C45.8027 51.7546 48.3414 80.3093 48.7547 82.488C48.8507 82.984 48.9094 85.688 48.9494 89.1546C49.0374 96.7226 48.9841 110.376 48.9841 110.376H60.8961C60.8961 110.376 60.5414 86.7226 60.0134 82.376C59.4854 78.0293 56.1174 51.7653 56.1174 51.7653L45.8027 51.7546Z" fill="#37474F"/>
<path d="M60.3574 108.296C58.4907 108.259 59.0241 108.243 57.1734 108.224C56.2641 108.224 50.2854 108.165 49.4401 108.304C49.436 108.306 49.4325 108.308 49.43 108.312C49.4275 108.315 49.4261 108.32 49.4261 108.324C49.4261 108.328 49.4275 108.333 49.43 108.336C49.4325 108.34 49.436 108.342 49.4401 108.344C50.2881 108.483 56.2667 108.432 57.1734 108.424C59.0401 108.405 58.5067 108.389 60.3574 108.352C60.3634 108.35 60.3686 108.346 60.3723 108.341C60.376 108.336 60.378 108.33 60.378 108.324C60.378 108.318 60.376 108.312 60.3723 108.307C60.3686 108.302 60.3634 108.298 60.3574 108.296Z" fill="#263238"/>
<path d="M51.248 94.776L51.2 89.6C51.2 87.928 51.2 86.2533 51.112 84.5813C50.9493 81.1946 50.264 77.8666 49.7786 74.52C49.2933 71.1733 48.8853 67.8133 48.5146 64.448C48.1013 60.6746 47.736 56.896 47.3466 53.12C47.3466 53.0933 47.304 53.0933 47.3066 53.12C47.8693 59.864 48.496 66.6053 49.44 73.3066C49.6729 74.9742 49.9262 76.6382 50.2 78.2986C50.4666 79.9786 50.7546 81.6613 50.888 83.3653C51.0213 85.0693 51.0373 86.6986 51.056 88.3653C51.072 90.0933 51.0889 91.8204 51.1066 93.5466C51.144 97.3813 51.1813 103.283 51.2186 107.12C51.2186 107.192 51.3333 107.189 51.3333 107.12C51.2986 103.685 51.272 98.1973 51.248 94.776Z" fill="#263238"/>
<path d="M43.2933 51.7546C43.2933 51.7546 48.3413 80.3093 48.7547 82.488C48.8507 82.984 48.9093 85.688 48.9493 89.1546L54.624 51.7466L43.2933 51.7546Z" fill="#263238"/>
<path d="M39.616 118.448C39.0027 118.352 24.024 110.525 23.6454 109.864C23.496 109.616 24.5094 107.368 25.8107 104.685L25.8534 104.6C26.12 104.048 31.4694 95.0293 31.4694 95.0293L40.68 100.437L35.5707 109.544L35.4827 109.704C35.4827 109.704 39.8747 115.267 40.216 116.035C40.5574 116.803 40.232 118.549 39.616 118.448Z" fill="#FFC4C0"/>
<path d="M39.616 118.448C39 118.352 24.0267 110.525 23.6453 109.864C23.5173 109.653 24.2373 107.979 25.2613 105.827C27.3947 107.451 37.7733 115.235 38.5307 114.427C38.6907 114.253 38.5707 113.851 38.36 113.419C39.2693 114.619 40.0773 115.72 40.2267 116.035C40.5547 116.8 40.232 118.547 39.616 118.448Z" fill="#4898C6"/>
<path d="M36.896 109.211L25.9813 102.467C25.9813 102.467 38.608 84.3973 38.6693 82.792C38.7573 80.392 39.9013 70.5573 40.864 62.584C40.864 62.584 39.04 58.2666 42.4507 51.7466H56.128C56.128 51.7466 55.2107 57.952 53.64 61.88C52.5862 62.2489 51.5686 62.714 50.6 63.2693C50.6 63.2693 49.24 81.048 49.1893 83.2693C49.088 87.6533 36.896 109.211 36.896 109.211Z" fill="#37474F"/>
<path d="M37.5653 106.691C35.9893 105.704 36.456 105.965 34.8693 104.995C34.0933 104.52 29.0026 101.405 28.2026 101.091C28.1985 101.089 28.1938 101.089 28.1894 101.09C28.1851 101.092 28.1815 101.095 28.1792 101.098C28.1769 101.102 28.1761 101.107 28.177 101.111C28.1779 101.116 28.1804 101.12 28.184 101.123C28.84 101.68 33.9973 104.704 34.7813 105.163C36.3813 106.104 35.936 105.816 37.5493 106.736C37.5543 106.735 37.559 106.734 37.563 106.73C37.5669 106.727 37.5699 106.723 37.5716 106.718C37.5732 106.714 37.5735 106.709 37.5724 106.704C37.5713 106.699 37.5689 106.694 37.5653 106.691Z" fill="#263238"/>
<path d="M54.1601 61.616C52.9275 62.0645 51.7363 62.6195 50.6001 63.2747C50.591 63.2796 50.5842 63.2877 50.581 63.2975C50.5779 63.3073 50.5786 63.3179 50.5831 63.3272C50.5875 63.3365 50.5954 63.3437 50.605 63.3473C50.6146 63.3509 50.6253 63.3507 50.6347 63.3467C51.8321 62.832 53.0561 62.3387 54.2241 61.7467C54.2338 61.7348 54.2399 61.7204 54.2417 61.7052C54.2434 61.69 54.2408 61.6745 54.234 61.6608C54.2273 61.647 54.2167 61.6355 54.2036 61.6275C54.1905 61.6196 54.1754 61.6156 54.1601 61.616Z" fill="#263238"/>
<path d="M52.4853 59.6347C52.6026 58.92 52.6986 58.2054 52.752 57.4827C52.8765 56.139 52.8622 54.7861 52.7093 53.4454C52.7093 53.4362 52.7056 53.4273 52.6991 53.4208C52.6926 53.4143 52.6838 53.4107 52.6746 53.4107C52.6654 53.4107 52.6566 53.4143 52.6501 53.4208C52.6436 53.4273 52.64 53.4362 52.64 53.4454C52.6708 55.3096 52.5612 57.1736 52.312 59.0214C52.1786 59.9067 51.7306 61.2454 52.6613 61.3814C53.592 61.5174 54.2186 59.2827 54.3333 58.6694C54.629 56.9246 54.6963 55.1488 54.5333 53.3867C54.5333 53.344 54.456 53.336 54.4586 53.3867C54.4586 54.8107 54.376 56.0534 54.256 57.3867C54.2 58.0027 53.704 61.4187 52.632 61.168C52.4533 61.128 52.3653 60.9494 52.3333 60.68C52.3379 60.3261 52.3863 59.9741 52.4773 59.632" fill="#263238"/>
<path d="M52.6693 61.264C52.5746 61.4943 52.4945 61.7303 52.4293 61.9706C52.3589 62.1562 52.3245 62.3535 52.328 62.552C52.33 62.5597 52.334 62.5666 52.3398 62.5721C52.3455 62.5776 52.3526 62.5814 52.3604 62.5831C52.3681 62.5847 52.3762 62.5842 52.3837 62.5815C52.3911 62.5789 52.3977 62.5742 52.4027 62.568C52.5137 62.3933 52.5974 62.2026 52.6507 62.0026C52.7333 61.784 52.8187 61.5653 52.8933 61.344C52.8994 61.3155 52.8949 61.2859 52.8807 61.2605C52.8666 61.2352 52.8437 61.2158 52.8163 61.206C52.7889 61.1963 52.759 61.1967 52.7319 61.2074C52.7049 61.2181 52.6827 61.2382 52.6693 61.264Z" fill="#263238"/>
<path d="M44.0587 52.608C43.6429 53.3224 43.299 54.0763 43.032 54.8586C42.7578 55.6388 42.5544 56.442 42.424 57.2586C42.3467 57.664 42.32 58.0746 42.2747 58.4826C42.2294 58.8906 42.224 59.3066 42.248 59.7173C42.2656 60.5396 42.3611 61.3584 42.5334 62.1626V62.1893C42.2187 65.6382 41.8916 69.0853 41.552 72.5306C41.2125 75.976 40.8729 79.4222 40.5334 82.8693L40.4987 83.192L40.4827 83.3546C40.4824 83.4141 40.4706 83.4729 40.448 83.528C40.356 83.734 40.2518 83.9343 40.136 84.128C39.9174 84.504 39.6907 84.8746 39.464 85.2426C39.0107 85.9804 38.5511 86.7146 38.0854 87.4453C37.1574 88.9066 36.2187 90.3573 35.2667 91.808C33.3814 94.712 31.4614 97.5946 29.5387 100.475L35.12 91.712L37.8907 87.3226C38.3529 86.5902 38.8098 85.856 39.2614 85.12C39.4854 84.7493 39.7094 84.3786 39.9254 84.0053C40.0267 83.824 40.144 83.6213 40.2134 83.472C40.2309 83.4269 40.2399 83.379 40.24 83.3306L40.256 83.168L40.288 82.8453C40.6151 79.4 40.9547 75.9555 41.3067 72.512C41.6587 69.0684 42.0143 65.6257 42.3734 62.184V62.208C42.2049 61.3927 42.1155 60.5631 42.1067 59.7306C42.088 59.3146 42.128 58.8986 42.1494 58.4853C42.1707 58.072 42.2374 57.6586 42.3254 57.2506C42.4734 56.4327 42.6938 55.6295 42.984 54.8506C43.2684 54.0699 43.6283 53.3188 44.0587 52.608Z" fill="#263238"/>
<path d="M50.6667 39.3867C52.7014 40.4827 62.1334 43.3867 65.472 43.2533C68.5947 43.1387 75.4454 39.4533 75.768 38.4533C76.0774 37.5067 74.336 31.6747 73.312 31.9707C72.288 32.2667 66.1894 36.6853 64.848 36.864C64.048 36.968 56.5147 36.7227 52.6534 36.864C49.1467 36.9867 47.8507 37.8667 50.6667 39.3867Z" fill="#FFC4C0"/>
<path d="M56.2667 42.0587L59.3093 36.4587C59.3093 36.4587 52.304 36.3494 50.2427 36.8987C47.9147 37.5174 48.7387 38.5734 50.7093 39.7387C52.68 40.904 56.2667 42.0587 56.2667 42.0587Z" fill="#4898C6"/>
<path d="M52.0827 36.8586C52.0827 36.9859 52.0321 37.108 51.9421 37.1981C51.8521 37.2881 51.73 37.3386 51.6027 37.3386C51.4754 37.3386 51.3533 37.2881 51.2633 37.1981C51.1733 37.108 51.1227 36.9859 51.1227 36.8586C51.122 36.8179 51.1283 36.7773 51.1414 36.7386C51.408 36.7013 51.712 36.6693 52.0294 36.6426C52.0648 36.7091 52.0831 36.7833 52.0827 36.8586ZM54.952 36.4933C54.8926 36.5465 54.8474 36.6136 54.8204 36.6887C54.7934 36.7637 54.7856 36.8443 54.7975 36.9231C54.8095 37.0019 54.8409 37.0766 54.889 37.1402C54.937 37.2039 55.0002 37.2545 55.0727 37.2876C55.1452 37.3208 55.2249 37.3353 55.3044 37.3299C55.384 37.3246 55.461 37.2994 55.5284 37.2569C55.5958 37.2143 55.6516 37.1556 55.6906 37.0861C55.7297 37.0165 55.7508 36.9384 55.752 36.8586C55.7525 36.7844 55.7353 36.7112 55.7019 36.6449C55.6685 36.5786 55.6199 36.5212 55.56 36.4773L54.952 36.4933ZM59.1814 36.4613H58.648C58.5809 36.5043 58.5257 36.5634 58.4875 36.6333C58.4493 36.7032 58.4293 36.7816 58.4294 36.8613C58.429 36.975 58.4691 37.0851 58.5423 37.172C58.6156 37.2589 58.7173 37.317 58.8294 37.336L59.2614 36.536C59.2392 36.5066 59.2121 36.4814 59.1814 36.4613ZM49.9174 39.2453C49.992 39.296 50.0614 39.3493 50.1414 39.3946C50.0836 39.3232 50.0055 39.2711 49.9174 39.2453ZM53.4294 39.2213C53.3345 39.2218 53.242 39.2504 53.1634 39.3035C53.0848 39.3566 53.0237 39.4317 52.9878 39.5195C52.9519 39.6072 52.9428 39.7036 52.9616 39.7966C52.9804 39.8895 53.0263 39.9748 53.0936 40.0416C53.1608 40.1085 53.2463 40.154 53.3394 40.1723C53.4324 40.1906 53.5288 40.1809 53.6163 40.1445C53.7039 40.1081 53.7787 40.0466 53.8313 39.9677C53.8839 39.8888 53.912 39.7961 53.912 39.7013C53.9113 39.5738 53.8602 39.4517 53.7697 39.3617C53.6793 39.2718 53.5569 39.2213 53.4294 39.2213ZM57.0854 39.2213C56.9904 39.2213 56.8976 39.2495 56.8187 39.3022C56.7397 39.3549 56.6782 39.4299 56.6419 39.5176C56.6056 39.6053 56.5961 39.7018 56.6146 39.7949C56.6331 39.8881 56.6788 39.9736 56.7459 40.0407C56.8131 40.1078 56.8986 40.1536 56.9917 40.1721C57.0848 40.1906 57.1813 40.1811 57.269 40.1448C57.3568 40.1084 57.4317 40.0469 57.4845 39.968C57.5372 39.889 57.5654 39.7962 57.5654 39.7013C57.5654 39.574 57.5148 39.4519 57.4248 39.3619C57.3348 39.2719 57.2127 39.2213 57.0854 39.2213Z" fill="white"/>
<path d="M57.8827 36.7094C57.7467 36.888 56.7707 38.616 56.5681 38.9974C56.3654 39.3787 55.5147 40.9254 55.3361 41.336C55.3361 41.352 55.3521 41.368 55.3627 41.352C55.6134 40.984 56.4747 39.424 56.6961 39.0427C56.9174 38.6614 57.8401 36.9254 57.9147 36.7227C57.9147 36.704 57.8907 36.6987 57.8827 36.7094Z" fill="#263238"/>
<path opacity="0.1" d="M57.2107 40.3147L56.2667 42.0587C56.2667 42.0587 52.6721 40.9093 50.7014 39.744C49.0587 38.7707 48.2134 37.8773 49.3254 37.248L57.2107 40.3147Z" fill="black"/>
<path d="M55.8693 49.248L56.2826 52.472L42.3066 52.032C42.3066 52.032 43.0133 41.7307 47.04 37.8454C49.056 35.904 51.2666 36.1894 52.6 37.7094C52.936 38.096 56.8986 43.272 57.2186 45.4587C57.4986 47.3867 55.8693 49.248 55.8693 49.248Z" fill="#4898C6"/>
<path d="M48.4294 36.8587C48.4294 36.9862 48.3789 37.1086 48.2889 37.199C48.199 37.2895 48.0769 37.3406 47.9494 37.3413C47.8688 37.3416 47.7897 37.3205 47.72 37.28C47.9427 37.1176 48.1802 36.9765 48.4294 36.8587ZM51.1547 36.6907C51.1333 36.7441 51.1225 36.8011 51.1227 36.8587C51.1227 36.9862 51.1732 37.1086 51.2631 37.199C51.3531 37.2895 51.4751 37.3406 51.6027 37.3413C51.6779 37.342 51.7521 37.3244 51.819 37.2901C51.8859 37.2557 51.9435 37.2056 51.9867 37.144C51.7321 36.9545 51.452 36.8019 51.1547 36.6907ZM44.488 42.008C44.368 42.304 44.256 42.6053 44.152 42.9067C44.2006 42.925 44.2521 42.934 44.304 42.9333C44.3673 42.9333 44.4299 42.9208 44.4883 42.8965C44.5467 42.8723 44.5998 42.8367 44.6444 42.7918C44.689 42.747 44.7243 42.6937 44.7483 42.6352C44.7722 42.5766 44.7844 42.5139 44.784 42.4507C44.7838 42.3545 44.7543 42.2607 44.6995 42.1816C44.6448 42.1026 44.5673 42.042 44.4774 42.008H44.488ZM47.9547 41.9707C47.859 41.9701 47.7653 41.9981 47.6855 42.0509C47.6058 42.1037 47.5435 42.1791 47.5066 42.2674C47.4698 42.3557 47.46 42.453 47.4785 42.5468C47.4971 42.6407 47.5431 42.727 47.6107 42.7946C47.6784 42.8623 47.7646 42.9083 47.8585 42.9269C47.9524 42.9454 48.0497 42.9356 48.138 42.8988C48.2263 42.8619 48.3016 42.7996 48.3545 42.7198C48.4073 42.64 48.4352 42.5464 48.4347 42.4507C48.4343 42.3873 48.4215 42.3246 48.3969 42.2662C48.3724 42.2077 48.3365 42.1547 48.2914 42.1102C48.2464 42.0656 48.193 42.0303 48.1343 42.0064C48.0756 41.9825 48.0127 41.9703 47.9494 41.9707H47.9547ZM51.608 41.9707C51.5123 41.9701 51.4187 41.9981 51.3389 42.0509C51.2591 42.1037 51.1968 42.1791 51.1599 42.2674C51.1231 42.3557 51.1133 42.453 51.1318 42.5468C51.1504 42.6407 51.1964 42.727 51.2641 42.7946C51.3317 42.8623 51.418 42.9083 51.5119 42.9269C51.6057 42.9454 51.703 42.9356 51.7913 42.8988C51.8796 42.8619 51.955 42.7996 52.0078 42.7198C52.0606 42.64 52.0886 42.5464 52.088 42.4507C52.0877 42.3873 52.0748 42.3246 52.0503 42.2662C52.0257 42.2077 51.9898 42.1547 51.9448 42.1102C51.8997 42.0656 51.8463 42.0303 51.7876 42.0064C51.7289 41.9825 51.6661 41.9703 51.6027 41.9707H51.608ZM55.264 41.9707C55.1683 41.9701 55.0747 41.9981 54.9949 42.0509C54.9151 42.1037 54.8528 42.1791 54.816 42.2674C54.7791 42.3557 54.7693 42.453 54.7878 42.5468C54.8064 42.6407 54.8524 42.727 54.9201 42.7946C54.9877 42.8623 55.074 42.9083 55.1679 42.9269C55.2617 42.9454 55.359 42.9356 55.4473 42.8988C55.5356 42.8619 55.611 42.7996 55.6638 42.7198C55.7166 42.64 55.7446 42.5464 55.744 42.4507C55.744 42.3872 55.7314 42.3243 55.707 42.2657C55.6825 42.2072 55.6467 42.154 55.6016 42.1094C55.5564 42.0647 55.5029 42.0295 55.444 42.0057C55.3852 41.9819 55.3222 41.97 55.2587 41.9707H55.264ZM46.1334 39.2213C46.038 39.2205 45.9448 39.2494 45.8667 39.304C45.7974 39.4053 45.7334 39.504 45.6694 39.6107C45.6667 39.6373 45.6667 39.6641 45.6694 39.6907C45.6694 39.7856 45.6975 39.8784 45.7503 39.9573C45.803 40.0363 45.878 40.0978 45.9657 40.1341C46.0534 40.1705 46.1499 40.18 46.243 40.1615C46.3361 40.1429 46.4216 40.0972 46.4888 40.0301C46.5559 39.963 46.6016 39.8774 46.6201 39.7843C46.6387 39.6912 46.6291 39.5947 46.5928 39.507C46.5565 39.4193 46.495 39.3443 46.416 39.2916C46.3371 39.2388 46.2443 39.2107 46.1494 39.2107L46.1334 39.2213ZM49.7894 39.2213C49.6944 39.2213 49.6016 39.2495 49.5227 39.3022C49.4437 39.355 49.3822 39.4299 49.3459 39.5177C49.3096 39.6054 49.3001 39.7019 49.3186 39.795C49.3371 39.8881 49.3828 39.9736 49.4499 40.0408C49.5171 40.1079 49.6026 40.1536 49.6957 40.1721C49.7888 40.1906 49.8853 40.1811 49.973 40.1448C50.0608 40.1085 50.1357 40.0469 50.1885 39.968C50.2412 39.8891 50.2694 39.7963 50.2694 39.7013C50.2694 39.6372 50.2565 39.5736 50.2316 39.5145C50.2066 39.4554 50.1701 39.4019 50.1241 39.3571C50.0781 39.3124 50.0236 39.2773 49.9638 39.254C49.904 39.2307 49.8402 39.2196 49.776 39.2213H49.7894ZM53.4427 39.2213C53.3479 39.2219 53.2553 39.2505 53.1768 39.3035C53.0982 39.3566 53.0371 39.4317 53.0011 39.5195C52.9652 39.6072 52.9561 39.7037 52.9749 39.7966C52.9937 39.8895 53.0397 39.9748 53.1069 40.0417C53.1741 40.1085 53.2597 40.154 53.3527 40.1723C53.4457 40.1906 53.5421 40.181 53.6297 40.1445C53.7172 40.1081 53.792 40.0466 53.8446 39.9677C53.8973 39.8889 53.9254 39.7962 53.9254 39.7013C53.925 39.637 53.9119 39.5735 53.8866 39.5143C53.8614 39.4552 53.8246 39.4017 53.7784 39.357C53.7321 39.3123 53.6775 39.2772 53.6175 39.2539C53.5576 39.2306 53.4936 39.2196 53.4294 39.2213H53.4427ZM44.2934 47.5627C44.1978 47.5621 44.1042 47.59 44.0245 47.6427C43.9448 47.6954 43.8825 47.7706 43.8455 47.8588C43.8086 47.9469 43.7987 48.0441 43.817 48.1379C43.8353 48.2317 43.8811 48.3179 43.9484 48.3857C44.0158 48.4535 44.1018 48.4997 44.1955 48.5185C44.2892 48.5374 44.3864 48.528 44.4748 48.4915C44.5631 48.4551 44.6387 48.3932 44.6918 48.3138C44.745 48.2343 44.7734 48.1409 44.7734 48.0453C44.7734 47.9178 44.7229 47.7954 44.6329 47.705C44.543 47.6145 44.4209 47.5634 44.2934 47.5627ZM47.9494 47.5627C47.8538 47.5621 47.7602 47.59 47.6805 47.6427C47.6008 47.6954 47.5385 47.7706 47.5015 47.8588C47.4646 47.9469 47.4547 48.0441 47.473 48.1379C47.4913 48.2317 47.5371 48.3179 47.6045 48.3857C47.6718 48.4535 47.7578 48.4997 47.8515 48.5185C47.9452 48.5374 48.0424 48.528 48.1308 48.4915C48.2191 48.4551 48.2947 48.3932 48.3478 48.3138C48.401 48.2343 48.4294 48.1409 48.4294 48.0453C48.4294 47.9178 48.3789 47.7954 48.2889 47.705C48.199 47.6145 48.0769 47.5634 47.9494 47.5627ZM51.6027 47.5627C51.5071 47.5621 51.4135 47.59 51.3338 47.6427C51.2541 47.6954 51.1918 47.7706 51.1549 47.8588C51.1179 47.9469 51.108 48.0441 51.1263 48.1379C51.1446 48.2317 51.1904 48.3179 51.2578 48.3857C51.3252 48.4535 51.4112 48.4997 51.5049 48.5185C51.5986 48.5374 51.6958 48.528 51.7841 48.4915C51.8725 48.4551 51.948 48.3932 52.0012 48.3138C52.0543 48.2343 52.0827 48.1409 52.0827 48.0453C52.0827 47.9178 52.0322 47.7954 51.9423 47.705C51.8523 47.6145 51.7302 47.5634 51.6027 47.5627ZM55.2587 47.5627C55.1631 47.5621 55.0695 47.59 54.9898 47.6427C54.9101 47.6954 54.8478 47.7706 54.8109 47.8588C54.7739 47.9469 54.764 48.0441 54.7823 48.1379C54.8006 48.2317 54.8464 48.3179 54.9138 48.3857C54.9812 48.4535 55.0672 48.4997 55.1609 48.5185C55.2546 48.5374 55.3518 48.528 55.4401 48.4915C55.5285 48.4551 55.604 48.3932 55.6572 48.3138C55.7103 48.2343 55.7387 48.1409 55.7387 48.0453C55.739 47.9821 55.7269 47.9194 55.7029 47.8608C55.679 47.8023 55.6437 47.7491 55.599 47.7042C55.5544 47.6593 55.5014 47.6238 55.443 47.5995C55.3846 47.5752 55.322 47.5627 55.2587 47.5627ZM46.1334 44.8133C46.0385 44.8139 45.946 44.8425 45.8674 44.8955C45.7888 44.9486 45.7277 45.0237 45.6918 45.1115C45.6559 45.1992 45.6468 45.2957 45.6656 45.3886C45.6844 45.4815 45.7303 45.5668 45.7976 45.6337C45.8648 45.7005 45.9503 45.746 46.0434 45.7643C46.1364 45.7826 46.2328 45.773 46.3203 45.7365C46.4079 45.7001 46.4827 45.6386 46.5353 45.5597C46.5879 45.4809 46.616 45.3882 46.616 45.2933C46.6153 45.1658 46.5642 45.0437 46.4737 44.9538C46.3833 44.8638 46.2609 44.8133 46.1334 44.8133ZM49.7894 44.8133C49.6944 44.8133 49.6016 44.8415 49.5227 44.8942C49.4437 44.947 49.3822 45.0219 49.3459 45.1097C49.3096 45.1974 49.3001 45.2939 49.3186 45.387C49.3371 45.4801 49.3828 45.5656 49.4499 45.6328C49.5171 45.6999 49.6026 45.7456 49.6957 45.7641C49.7888 45.7826 49.8853 45.7731 49.973 45.7368C50.0608 45.7005 50.1357 45.639 50.1885 45.56C50.2412 45.4811 50.2694 45.3883 50.2694 45.2933C50.2694 45.2292 50.2565 45.1656 50.2316 45.1065C50.2066 45.0474 50.1701 44.9939 50.1241 44.9491C50.0781 44.9044 50.0236 44.8693 49.9638 44.846C49.904 44.8227 49.8402 44.8116 49.776 44.8133H49.7894ZM53.4427 44.8133C53.3479 44.8139 53.2553 44.8425 53.1768 44.8955C53.0982 44.9486 53.0371 45.0237 53.0011 45.1115C52.9652 45.1992 52.9561 45.2957 52.9749 45.3886C52.9937 45.4815 53.0397 45.5668 53.1069 45.6337C53.1741 45.7005 53.2597 45.746 53.3527 45.7643C53.4457 45.7826 53.5421 45.773 53.6297 45.7365C53.7172 45.7001 53.792 45.6386 53.8446 45.5597C53.8973 45.4809 53.9254 45.3882 53.9254 45.2933C53.925 45.229 53.9119 45.1655 53.8866 45.1063C53.8614 45.0472 53.8246 44.9937 53.7784 44.949C53.7321 44.9043 53.6775 44.8692 53.6175 44.8459C53.5576 44.8226 53.4936 44.8116 53.4294 44.8133H53.4427ZM57.232 45.4587C57.1957 45.2401 57.1404 45.025 57.0667 44.816C56.9455 44.8282 56.8335 44.8859 56.7534 44.9776C56.6732 45.0692 56.6308 45.1879 56.6349 45.3096C56.639 45.4313 56.6892 45.547 56.7753 45.633C56.8614 45.7191 56.977 45.7693 57.0987 45.7733C57.1533 45.7731 57.2075 45.7632 57.2587 45.744C57.24 45.6507 57.232 45.5547 57.2187 45.4587H57.232ZM42.4747 50.4C42.4267 50.7733 42.392 51.0933 42.3654 51.3493C42.399 51.3534 42.433 51.3534 42.4667 51.3493C42.5882 51.3403 42.7017 51.2857 42.7846 51.1964C42.8675 51.1071 42.9135 50.9898 42.9135 50.868C42.9135 50.7462 42.8675 50.6289 42.7846 50.5396C42.7017 50.4504 42.5882 50.3957 42.4667 50.3867L42.4747 50.4ZM46.1334 50.4C46.0378 50.4 45.9444 50.4284 45.8649 50.4815C45.7855 50.5347 45.7236 50.6102 45.6872 50.6986C45.6507 50.7869 45.6413 50.8841 45.6602 50.9778C45.679 51.0715 45.7252 51.1575 45.793 51.2249C45.8608 51.2923 45.947 51.3381 46.0408 51.3564C46.1346 51.3747 46.2318 51.3648 46.3199 51.3278C46.4081 51.2909 46.4833 51.2286 46.536 51.1489C46.5887 51.0692 46.6166 50.9756 46.616 50.88C46.6153 50.7525 46.5642 50.6304 46.4737 50.5404C46.3833 50.4505 46.2609 50.4 46.1334 50.4ZM49.7894 50.4C49.6937 50.3995 49.6 50.4274 49.5202 50.4802C49.4404 50.5331 49.3781 50.6084 49.3413 50.6967C49.3044 50.785 49.2946 50.8823 49.3132 50.9762C49.3317 51.0701 49.3777 51.1563 49.4454 51.224C49.5131 51.2916 49.5993 51.3377 49.6932 51.3562C49.7871 51.3747 49.8843 51.3649 49.9726 51.3281C50.0609 51.2912 50.1363 51.2289 50.1891 51.1492C50.242 51.0694 50.2699 50.9757 50.2694 50.88C50.2694 50.8158 50.2565 50.7523 50.2316 50.6932C50.2066 50.6341 50.1701 50.5805 50.1241 50.5358C50.0781 50.491 50.0236 50.456 49.9638 50.4326C49.904 50.4093 49.8402 50.3982 49.776 50.4H49.7894ZM53.4427 50.4C53.3471 50.4 53.2537 50.4284 53.1743 50.4815C53.0948 50.5347 53.033 50.6102 52.9965 50.6986C52.9601 50.7869 52.9507 50.8841 52.9695 50.9778C52.9883 51.0715 53.0346 51.1575 53.1023 51.2249C53.1701 51.2923 53.2564 51.3381 53.3502 51.3564C53.444 51.3747 53.5411 51.3648 53.6293 51.3278C53.7174 51.2909 53.7926 51.2286 53.8453 51.1489C53.898 51.0692 53.9259 50.9756 53.9254 50.88C53.925 50.8157 53.9119 50.7521 53.8866 50.693C53.8614 50.6339 53.8246 50.5804 53.7784 50.5356C53.7321 50.4909 53.6775 50.4559 53.6175 50.4326C53.5576 50.4093 53.4936 50.3982 53.4294 50.4H53.4427Z" fill="white"/>
<path d="M53.5521 48.1547C52.8057 48.2056 52.0641 48.3117 51.3334 48.472C50.9707 48.5574 50.6161 48.6587 50.2667 48.768C50.0907 48.8214 49.9121 48.8694 49.7334 48.9174C49.5471 48.9732 49.3544 49.0055 49.1601 49.0134C49.1565 49.0134 49.1531 49.0148 49.1506 49.0173C49.1481 49.0198 49.1467 49.0232 49.1467 49.0267C49.1467 49.0302 49.1481 49.0336 49.1506 49.0361C49.1531 49.0386 49.1565 49.04 49.1601 49.04C49.3429 49.0533 49.5265 49.0533 49.7094 49.04C49.8888 49.0216 50.0669 48.9922 50.2427 48.952C50.6107 48.8694 50.9761 48.768 51.3441 48.6854C52.0827 48.512 52.8241 48.336 53.5761 48.216C53.6001 48.2107 53.6001 48.152 53.5521 48.1547Z" fill="#263238"/>
<path d="M55.3814 48.8533C54.7683 48.776 54.1513 48.7333 53.5334 48.7253C53.2241 48.7253 52.9174 48.7387 52.6107 48.7627C52.465 48.7733 52.3183 48.7867 52.1707 48.8027C52.0081 48.8187 51.8481 48.8587 51.6881 48.8747C51.6721 48.8747 51.6694 48.9013 51.6881 48.9013C51.8401 48.9013 51.9947 48.9013 52.1494 48.9013H53.5334C54.1494 48.9013 54.7627 48.9013 55.3814 48.9013C55.4134 48.904 55.4107 48.856 55.3814 48.8533Z" fill="#263238"/>
<path d="M101.488 38.568C87.088 35.2009 72.8382 31.8969 58.7387 28.656C53.4373 46.0373 54.8667 66.256 47.432 82.736C61.832 86.1031 76.0809 89.4071 90.1787 92.648C95.4827 75.2667 94.0533 55.056 101.488 38.568Z" fill="#EBEBEB"/>
<path d="M54.1173 76.088C61.9395 77.8836 69.7262 79.6613 77.4773 81.4213C77.5813 80.9627 77.6853 80.5013 77.784 80.04C70.0489 78.2818 62.2835 76.5102 54.488 74.7253C54.368 75.2 54.2453 75.64 54.1173 76.088Z" fill="#DBDBDB"/>
<path d="M55.0106 72.6507C62.7742 74.4284 70.5075 76.1876 78.2106 77.928C78.2977 77.4622 78.3866 76.9947 78.4773 76.5253C70.7831 74.7867 63.0657 73.0364 55.3253 71.2747C55.224 71.7333 55.12 72.1947 55.0106 72.6507Z" fill="#DBDBDB"/>
<path d="M55.7706 69.1573C63.4862 70.9102 71.1786 72.6516 78.848 74.3813C78.9262 73.9102 79.0026 73.4382 79.0773 72.9653C71.4151 71.2373 63.736 69.5022 56.04 67.76C55.9511 68.2276 55.8613 68.6933 55.7706 69.1573Z" fill="#DBDBDB"/>
<path d="M56.4187 65.6187C67.6703 68.1609 78.8863 70.688 90.0667 73.2C90.1343 72.7218 90.1991 72.2453 90.2614 71.7707C79.0809 69.2587 67.8809 66.7369 56.6614 64.2053C56.576 64.6773 56.4987 65.1467 56.4187 65.6187Z" fill="#DBDBDB"/>
<path d="M56.9867 62.0427C68.1867 64.5689 79.3742 67.0844 90.5494 69.5893L90.7334 68.1547C79.5636 65.648 68.3831 63.136 57.192 60.6187C57.1263 61.0951 57.0578 61.5698 56.9867 62.0427Z" fill="#DBDBDB"/>
<path d="M57.4934 58.4426C68.6774 60.9582 79.8516 63.4675 91.0161 65.9706C91.0783 65.4924 91.1405 65.0151 91.2027 64.5386L57.6854 57.0133L57.4934 58.4426Z" fill="#DBDBDB"/>
<path d="M57.968 54.8293L91.4934 62.36C91.5574 61.8827 91.624 61.408 91.6907 60.9307L58.1547 53.3973C58.0934 53.8667 58.0294 54.352 57.968 54.8293Z" fill="#DBDBDB"/>
<path d="M58.4374 51.2133C69.6125 53.7235 80.8 56.24 92 58.7626C92.0729 58.288 92.1458 57.8151 92.2187 57.344C80.9885 54.8106 69.7885 52.2898 58.6187 49.7813C58.56 50.2595 58.4996 50.7369 58.4374 51.2133Z" fill="#DBDBDB"/>
<path d="M58.9333 47.6053C70.1334 50.1191 81.3538 52.648 92.5947 55.192C92.6765 54.7227 92.76 54.2542 92.8454 53.7866C81.5671 51.2355 70.3307 48.6995 59.136 46.1786C59.0596 46.6533 58.992 47.1289 58.9333 47.6053Z" fill="#DBDBDB"/>
<path d="M59.4507 44.0134C70.6738 46.5431 81.9396 49.0916 93.248 51.6587C93.3405 51.1947 93.4382 50.7316 93.5414 50.2693C82.2027 47.6898 70.9156 45.1325 59.68 42.5974C59.6 43.0694 59.5254 43.5414 59.4507 44.0134Z" fill="#DBDBDB"/>
<path d="M60.0507 40.4507C71.32 43.0018 82.6444 45.5751 94.024 48.1707C94.136 47.7155 94.2507 47.2604 94.368 46.8053C82.9511 44.192 71.5991 41.6071 60.312 39.0507C60.2213 39.5173 60.136 39.984 60.0507 40.4507Z" fill="#DBDBDB"/>
<path d="M60.744 36.9307C72.0738 39.5102 83.4702 42.1138 94.9334 44.7413C95.0667 44.2933 95.2 43.848 95.3414 43.408C83.8285 40.7573 72.3956 38.1387 61.0427 35.552C60.944 36 60.8427 36.4667 60.744 36.9307Z" fill="#DBDBDB"/>
<path d="M49.3893 37.632C49.4613 37.8987 50.832 39.6507 52.088 39.5547C52.496 39.52 52.4186 37.28 52.4186 37.28L52.4506 37.1147L52.8986 34.7787L50.1333 33.1147L49.7333 32.896C49.7333 32.896 49.6533 33.5413 49.56 34.3493C49.56 34.3867 49.56 34.424 49.5466 34.464C49.5333 34.504 49.5466 34.552 49.5306 34.5947C49.5146 34.7147 49.4986 34.8373 49.488 34.96C49.4773 35.0827 49.4666 35.144 49.4613 35.2427C49.456 35.3413 49.4426 35.4373 49.4346 35.536C49.3714 36.2328 49.3563 36.9331 49.3893 37.632Z" fill="#FFC4C0"/>
<path d="M52.9013 34.7787L52.4693 37.0213C51.21 36.62 50.1574 35.7425 49.536 34.576L49.5627 34.3493C49.656 33.5493 49.736 32.896 49.736 32.896L50.136 33.1147L52.9013 34.7787Z" fill="#263238"/>
<path d="M55.7334 30.992C56.3147 35.1227 53.9041 35.936 53.0134 36.0587C52.2134 36.1707 49.4374 36.4507 48.4347 32.4C47.4321 28.3493 49.1681 26.776 51.0054 26.4213C52.8427 26.0667 55.1654 26.8613 55.7334 30.992Z" fill="#FFC4C0"/>
<path d="M55.0427 30.4347C54.947 30.4286 54.8518 30.417 54.7574 30.4C54.6547 30.4006 54.5546 30.3678 54.4721 30.3067C54.45 30.2828 54.4367 30.2521 54.4342 30.2197C54.4318 30.1872 54.4405 30.1549 54.4587 30.128C54.5014 30.0786 54.5566 30.0416 54.6186 30.0209C54.6806 30.0003 54.7469 29.9967 54.8107 30.0107C54.9453 30.0182 55.072 30.0763 55.1654 30.1734C55.1857 30.1964 55.1988 30.2248 55.2032 30.2552C55.2075 30.2855 55.2029 30.3165 55.1898 30.3443C55.1768 30.372 55.1559 30.3954 55.1298 30.4115C55.1037 30.4275 55.0734 30.4356 55.0427 30.4347Z" fill="#263238"/>
<path d="M52.224 30.5947C52.3142 30.5717 52.4032 30.5441 52.4907 30.512C52.5927 30.4972 52.6867 30.4484 52.7573 30.3733C52.7753 30.3461 52.7834 30.3137 52.7805 30.2812C52.7776 30.2487 52.7638 30.2182 52.7413 30.1947C52.6906 30.1532 52.6297 30.1261 52.565 30.1163C52.5002 30.1064 52.434 30.1142 52.3733 30.1387C52.242 30.1682 52.1268 30.2463 52.0507 30.3573C52.0333 30.3841 52.0246 30.4154 52.0255 30.4473C52.0263 30.4791 52.0369 30.5099 52.0557 30.5356C52.0745 30.5614 52.1006 30.5808 52.1307 30.5913C52.1607 30.6018 52.1933 30.603 52.224 30.5947Z" fill="#263238"/>
<path d="M52.888 31.3707C52.888 31.3707 52.8667 31.3707 52.8694 31.3973C52.9094 31.6773 52.9067 32.008 52.6614 32.128C52.6614 32.128 52.6614 32.1467 52.6614 32.144C52.9707 32.0667 52.9707 31.6293 52.888 31.3707Z" fill="#263238"/>
<path d="M52.6027 31.1013C52.1467 31.1173 52.208 32.032 52.632 32.0187C53.056 32.0054 52.9867 31.0907 52.6027 31.1013Z" fill="#263238"/>
<path d="M52.4267 31.1627C52.3521 31.2187 52.2801 31.3173 52.1841 31.3333C52.0881 31.3493 51.9814 31.2613 51.9041 31.1733H51.8881C51.8881 31.3467 51.9761 31.5227 52.1547 31.536C52.3334 31.5493 52.4401 31.384 52.4694 31.2053C52.4907 31.2 52.4587 31.1387 52.4267 31.1627Z" fill="#263238"/>
<path d="M54.472 31.224C54.472 31.224 54.496 31.224 54.496 31.248C54.496 31.5307 54.5733 31.8533 54.8373 31.928V31.944C54.52 31.9253 54.44 31.496 54.472 31.224Z" fill="#263238"/>
<path d="M54.7013 30.9093C55.1547 30.8373 55.264 31.7467 54.8453 31.8133C54.4266 31.88 54.3227 30.968 54.7013 30.9093Z" fill="#263238"/>
<path d="M54.8986 30.9467C54.976 30.984 55.0586 31.064 55.144 31.0587C55.2293 31.0533 55.3066 30.9467 55.36 30.8453C55.36 30.8453 55.3733 30.8453 55.376 30.8453C55.4 31.0187 55.376 31.2053 55.2026 31.2613C55.0293 31.3173 54.936 31.1733 54.8613 30.9947C54.848 30.9813 54.8666 30.9333 54.8986 30.9467Z" fill="#263238"/>
<path d="M53.256 33.6827C53.3333 33.7387 53.4133 33.8187 53.5227 33.8133C53.6275 33.7963 53.7274 33.7572 53.816 33.6987C53.816 33.6987 53.8347 33.6987 53.8293 33.6987C53.7969 33.7598 53.7485 33.8112 53.6894 33.8473C53.6303 33.8834 53.5626 33.903 53.4933 33.904C53.4321 33.8985 53.3739 33.8747 53.3264 33.8357C53.2788 33.7967 53.2441 33.7443 53.2267 33.6853C53.224 33.6827 53.2453 33.6747 53.256 33.6827Z" fill="#263238"/>
<path d="M53.0667 32.9387C53.1532 33.0364 53.259 33.1153 53.3773 33.1704C53.4957 33.2254 53.6242 33.2555 53.7547 33.2587C53.8687 33.261 53.9826 33.2485 54.0934 33.2213L54.1574 33.2027L54.216 33.184C54.2306 33.1797 54.2431 33.1703 54.2514 33.1576C54.2597 33.1449 54.2633 33.1297 54.2614 33.1147C54.2629 33.1058 54.2629 33.0968 54.2614 33.088V33.0667C54.232 32.8533 54.1627 32.5333 54.1627 32.5333C54.2454 32.56 54.6667 32.6747 54.6427 32.5653C54.4701 31.6172 54.2021 30.6889 53.8427 29.7947C53.84 29.7891 53.8355 29.7846 53.8298 29.782C53.8242 29.7793 53.8178 29.7788 53.8118 29.7804C53.8058 29.7819 53.8006 29.7856 53.797 29.7906C53.7933 29.7956 53.7916 29.8018 53.792 29.808C53.9494 30.688 54.256 31.5307 54.4267 32.4107C54.2768 32.3674 54.1214 32.3459 53.9654 32.3467C53.936 32.3467 54.112 32.9573 54.1174 33.056C53.9467 33.1012 53.7687 33.1112 53.594 33.0855C53.4194 33.0599 53.2518 32.999 53.1014 32.9067C53.0667 32.8987 53.0427 32.92 53.0667 32.9387Z" fill="#263238"/>
<path d="M48.4854 32.1706C49.4747 32.128 49.3867 30.5706 49.3867 30.5706C49.3867 30.5706 50.5014 30.4106 50.4907 28.6C50.728 28.9532 51.0444 29.2463 51.4147 29.456C51.785 29.6657 52.199 29.7862 52.624 29.808C52.9494 29.84 51.824 29.0613 51.824 29.0613C51.824 29.0613 53.1734 30.1653 55.5574 29.5946C55.7254 29.5546 55.2347 27.0453 53.312 26.28C51.3894 25.5146 49.7227 26.088 48.6187 27.3466C48.296 27.5375 48.0255 27.805 47.831 28.1256C47.6366 28.4461 47.5243 28.8096 47.504 29.184C47.4 30.4906 48.1014 32.1866 48.4854 32.1706Z" fill="#263238"/>
<path d="M49.144 32.6293C49.144 32.6293 48.168 31.376 47.5947 31.7306C47.0214 32.0853 47.8054 33.936 48.512 34.1573C48.6007 34.1915 48.6953 34.2075 48.7902 34.2043C48.8852 34.2011 48.9785 34.1788 49.0646 34.1387C49.1508 34.0987 49.2279 34.0416 49.2915 33.9711C49.3551 33.9005 49.4038 33.8178 49.4347 33.728L49.144 32.6293Z" fill="#FFC4C0"/>
<path d="M47.832 32.2667V32.2853C48.328 32.456 48.608 32.8933 48.8107 33.352C48.78 33.3049 48.7395 33.2649 48.692 33.2349C48.6444 33.2049 48.5909 33.1856 48.5352 33.1782C48.4794 33.1709 48.4227 33.1757 48.369 33.1923C48.3153 33.209 48.2659 33.2371 48.224 33.2747C48.2107 33.2747 48.224 33.304 48.224 33.3013C48.308 33.2696 48.3997 33.2646 48.4866 33.287C48.5735 33.3094 48.6513 33.3582 48.7094 33.4267C48.8047 33.5428 48.8887 33.6678 48.96 33.8C48.984 33.8427 49.0614 33.816 49.0427 33.7653C49.0267 33.1253 48.5014 32.2827 47.832 32.2667Z" fill="#263238"/>
<path d="M48.9786 33.9413C48.9812 33.9818 48.9717 34.0221 48.9513 34.0572C48.9309 34.0923 48.9006 34.1206 48.8642 34.1385C48.8278 34.1564 48.7869 34.1631 48.7467 34.1577C48.7064 34.1524 48.6687 34.1352 48.6382 34.1085C48.6077 34.0817 48.5858 34.0465 48.5754 34.0073C48.5649 33.9681 48.5662 33.9267 48.5792 33.8883C48.5923 33.8498 48.6164 33.8161 48.6485 33.7914C48.6807 33.7667 48.7195 33.752 48.76 33.7493C48.7869 33.7475 48.814 33.751 48.8396 33.7597C48.8652 33.7684 48.8889 33.782 48.9092 33.7999C48.9295 33.8177 48.9461 33.8394 48.958 33.8637C48.9699 33.8879 48.9769 33.9143 48.9786 33.9413Z" fill="white"/>
<path d="M49.6213 31.2027L47.8746 31.1947L47.912 30.7333L49.6373 30.9413L49.6213 31.2027Z" fill="#4898C6"/>
<path d="M49.6961 30.76L47.9761 30.4427L48.0961 29.9947L49.7574 30.5067L49.6961 30.76Z" fill="#4898C6"/>
<path d="M45.9573 40.1013C45.1573 42.168 42.168 51.9386 43.456 55.528C44.256 57.7306 52.0453 62.072 54.0186 63.04C54.88 63.4613 58.0186 57.912 57.6373 56.9626C57.256 56.0133 49.8186 52.352 49.3333 51.76C49.3333 51.76 49.0666 44.7946 48.9173 41.0933C48.7733 37.584 47.4666 36.2373 45.9573 40.1013Z" fill="#FFC4C0"/>
<path d="M62.6213 60.1546C63.7227 60.6266 65.5547 60.336 65.4693 61.2213C65.384 62.0213 64.0907 62.088 64.0907 62.088C64.0907 62.088 65.576 62.472 65.2453 63.2933C64.9147 64.1146 63.48 63.912 63.48 63.912C63.48 63.912 64.7307 64.1786 64.3413 64.9786C63.952 65.7786 62.6987 65.8266 62.6987 65.8266C62.6987 65.8266 63.0053 66.1466 62.4773 66.5866C61.72 67.216 59.6427 66.7706 58.6107 66.28C57.5787 65.7893 54.1707 63.2346 53.656 62.8346L56.744 56.1946C56.744 56.1946 58.9787 56.2186 60.1093 56.3706C61.24 56.5226 64.8293 58.056 64.5093 58.9733C64.1893 59.8906 61.6747 58.7626 60.9973 58.6213C60.32 58.48 60.1733 58.6213 60.4293 58.9146C60.5973 59.104 62.1333 59.9466 62.6213 60.1546Z" fill="#FFC4C0"/>
<path d="M64.0294 62.0614C62.2187 62.04 61.432 61.72 59.936 60.752C59.9067 60.7334 59.872 60.7734 59.8987 60.7947C61.2774 61.8747 62.208 62.4214 64.032 62.1494C64.1227 62.1334 64.1147 62.0614 64.0294 62.0614Z" fill="#263238"/>
<path d="M63.5574 63.896C61.6774 63.712 60.8187 63.3626 59.1787 62.472C59.1736 62.4704 59.1681 62.4705 59.163 62.4725C59.158 62.4744 59.1538 62.4779 59.151 62.4825C59.1482 62.4872 59.1471 62.4926 59.1478 62.4979C59.1484 62.5032 59.1509 62.5082 59.1547 62.512C60.6907 63.528 61.6321 64.0506 63.5307 63.9893C63.6187 64 63.6427 63.904 63.5574 63.896Z" fill="#263238"/>
<path d="M62.6801 65.8026C60.8774 65.4933 59.9201 65.16 58.4374 64.0853C58.4307 64.0796 58.422 64.0769 58.4132 64.0776C58.4045 64.0784 58.3964 64.0826 58.3907 64.0893C58.3851 64.096 58.3823 64.1047 58.3831 64.1135C58.3838 64.1222 58.388 64.1303 58.3947 64.136C59.7974 65.3813 60.9894 65.8053 62.6614 65.8586C62.7814 65.8666 62.7947 65.824 62.6801 65.8026Z" fill="#263238"/>
<path d="M49.6 45.992L43.3521 47.2C43.3521 47.2 45.3787 40.4933 46.5307 38.688C47.8294 36.6587 48.5841 37.7653 49.0934 39.9973C49.6027 42.2293 49.6 45.992 49.6 45.992Z" fill="#4898C6"/>
<path d="M48.4293 42.4507C48.4299 42.5464 48.4019 42.6401 48.3491 42.7198C48.2963 42.7996 48.2209 42.8619 48.1326 42.8988C48.0443 42.9356 47.947 42.9454 47.8532 42.9269C47.7593 42.9083 47.673 42.8623 47.6054 42.7946C47.5377 42.727 47.4917 42.6407 47.4732 42.5469C47.4546 42.453 47.4644 42.3557 47.5013 42.2674C47.5381 42.1791 47.6004 42.1037 47.6802 42.0509C47.76 41.9981 47.8537 41.9702 47.9493 41.9707C48.0764 41.9714 48.1981 42.0222 48.288 42.112C48.3778 42.2019 48.4286 42.3236 48.4293 42.4507ZM46.2213 39.2347C46.096 39.4827 45.9547 39.768 45.832 40.0827C45.914 40.1474 46.0156 40.1822 46.12 40.1813C46.1831 40.1817 46.2457 40.1695 46.3041 40.1455C46.3625 40.1215 46.4156 40.0862 46.4602 40.0415C46.5048 39.9969 46.5402 39.9438 46.5642 39.8854C46.5882 39.8271 46.6004 39.7645 46.6 39.7013C46.6009 39.5917 46.5636 39.4851 46.4945 39.4C46.4254 39.3148 46.3288 39.2564 46.2213 39.2347ZM46.1333 44.8133C46.0385 44.8139 45.946 44.8425 45.8674 44.8955C45.7888 44.9486 45.7277 45.0237 45.6918 45.1115C45.6559 45.1993 45.6467 45.2957 45.6656 45.3886C45.6844 45.4815 45.7303 45.5668 45.7975 45.6337C45.8648 45.7005 45.9503 45.746 46.0433 45.7643C46.1364 45.7826 46.2328 45.773 46.3203 45.7365C46.4079 45.7001 46.4827 45.6386 46.5353 45.5597C46.5879 45.4809 46.616 45.3882 46.616 45.2933C46.6153 45.1658 46.5641 45.0437 46.4737 44.9538C46.3833 44.8638 46.2609 44.8133 46.1333 44.8133ZM49.6 44.8533C49.5127 44.8913 49.4386 44.9544 49.3873 45.0346C49.3359 45.1148 49.3095 45.2084 49.3115 45.3036C49.3136 45.3988 49.3438 45.4913 49.3985 45.5692C49.4532 45.6471 49.5298 45.7071 49.6187 45.7413C49.6 45.5413 49.6 45.2347 49.6 44.8533Z" fill="white"/>
<path d="M44.0186 45.9093C44.2293 45.8347 46.1733 45.4293 46.5973 45.352C47.0213 45.2747 48.7546 44.936 49.2 44.8907C49.2024 44.8896 49.2051 44.8892 49.2077 44.8894C49.2103 44.8896 49.2129 44.8905 49.2151 44.892C49.2173 44.8934 49.2192 44.8954 49.2204 44.8977C49.2217 44.9001 49.2224 44.9027 49.2224 44.9053C49.2224 44.908 49.2217 44.9106 49.2204 44.9129C49.2192 44.9153 49.2173 44.9173 49.2151 44.9187C49.2129 44.9202 49.2103 44.9211 49.2077 44.9213C49.2051 44.9215 49.2024 44.9211 49.2 44.92C48.7733 45.048 47.0293 45.3947 46.5973 45.4827C46.1653 45.5707 44.2346 45.928 44.016 45.9387C44 45.9387 44 45.9147 44.0186 45.9093Z" fill="#263238"/>
<path d="M49.1121 46.0827C49.2987 46.032 49.5894 45.968 49.5894 45.968C49.5894 45.2267 49.2907 41.488 49.2321 40.584C49.2321 40.568 49.2534 40.568 49.2534 40.584C49.3209 41.0942 49.3832 41.6027 49.4401 42.1094C49.4401 42.0454 49.4401 41.9814 49.4401 41.9174C49.4534 41.6854 49.4721 41.456 49.4774 41.2267C49.4774 41.2054 49.5067 41.2027 49.5067 41.2267C49.5227 41.4584 49.5227 41.691 49.5067 41.9227C49.4934 42.088 49.4721 42.248 49.4481 42.4107C49.4801 42.704 49.5147 42.9947 49.5387 43.288C49.6134 44.1894 49.7227 45.12 49.7281 46.024C49.5194 46.0795 49.306 46.1153 49.0907 46.1307C49.0881 46.1334 49.0854 46.0907 49.1121 46.0827Z" fill="#263238"/>
<path d="M43.9574 47.072C43.7574 47.1307 43.56 47.1787 43.36 47.232L43.296 47.248V47.1787C43.469 46.353 43.6934 45.539 43.968 44.7414C44.104 44.3414 44.2347 43.9414 44.408 43.5547C44.5814 43.168 44.7334 42.7787 44.92 42.4C44.8 42.8054 44.6694 43.2 44.5414 43.6027L44.152 44.8027L43.3787 47.2027L43.3307 47.1494C43.5467 47.1227 43.752 47.0934 43.9574 47.072Z" fill="#263238"/>
<path d="M44.376 43.8907C44.3194 43.7244 44.3047 43.5467 44.3333 43.3733C44.3432 43.2828 44.362 43.1935 44.3893 43.1067C44.4164 43.0236 44.4531 42.9439 44.4986 42.8693C44.5007 43.0398 44.4891 43.2101 44.464 43.3787C44.44 43.5573 44.416 43.7333 44.376 43.8907Z" fill="#263238"/>
<path d="M74.2587 29.0666C74.4838 29.0396 74.7117 29.085 74.9092 29.1963C75.1068 29.3075 75.2637 29.4788 75.3574 29.6853C75.3574 29.6853 75.84 28.7866 76.6907 28.848C77.1254 28.88 77.456 29.6026 77.456 29.6026C77.456 29.6026 77.8747 28.9013 78.6214 29.0026C79.2187 29.0826 79.4614 29.8026 79.4614 29.8026C79.4614 29.8026 80.176 29.3146 80.7574 29.592C81.9334 30.152 81.784 35.3146 79.8587 36.056C78.9627 36.4026 79.0587 35.144 79.0587 35.144C79.0587 35.144 78.472 36.9173 77.408 36.912C76.344 36.9066 76.576 35.2826 76.576 35.2826C76.576 35.2826 75.992 36.9946 74.888 36.8826C73.7387 36.7626 74.2534 35.176 74.2534 35.176C74.2534 35.176 73.4534 36.3013 72.6187 36.0186C71.256 35.5546 73.1867 33.1253 72.9494 31.984L70.848 31.4506C70.848 31.4506 73.3334 29.1386 74.2587 29.0666Z" fill="#FFC4C0"/>
<path d="M79.5093 29.888C79.5093 29.872 79.5333 29.8666 79.536 29.888C79.9218 31.6655 79.7572 33.5183 79.064 35.2C79.0427 35.2533 78.9467 35.2373 78.96 35.1733C79.4003 33.4478 79.5853 31.6671 79.5093 29.888Z" fill="#263238"/>
<path d="M77.4613 29.5653C77.4613 29.5466 77.4933 29.544 77.4987 29.5653C77.864 31.328 77.664 33.5653 76.624 35.3226C76.5893 35.384 76.496 35.4026 76.5333 35.3226C77.136 34.1093 77.5573 31.232 77.4613 29.5653Z" fill="#263238"/>
<path d="M74.1333 35.256C75.064 33.5333 75.3493 31.6853 75.368 29.744C75.368 29.72 75.4053 29.7227 75.4106 29.744C75.6586 30.696 75.5173 31.9307 75.3253 32.8827C75.1641 33.7681 74.7733 34.5957 74.192 35.2827C74.176 35.3173 74.1333 35.2933 74.1333 35.256Z" fill="#263238"/>
<path d="M79.016 35.224C78.9072 35.5834 78.7444 35.9241 78.5333 36.2346C78.3297 36.5683 78.011 36.8159 77.6373 36.9306C77.4407 36.9827 77.2326 36.9715 77.0427 36.8986C76.8517 36.8121 76.7023 36.6542 76.6267 36.4586C76.4977 36.0889 76.4656 35.6923 76.5333 35.3066L76.712 35.3546C76.5749 35.716 76.3774 36.0514 76.128 36.3466C75.8769 36.6586 75.5219 36.8696 75.128 36.9413C74.9251 36.9692 74.7185 36.9445 74.528 36.8693C74.4316 36.8274 74.3448 36.7663 74.2728 36.6898C74.2008 36.6132 74.1452 36.5228 74.1093 36.424C74.0014 36.0451 74.0116 35.6422 74.1387 35.2693L74.2507 35.3306C74.1272 35.4706 73.9906 35.5983 73.8427 35.712C73.6965 35.8272 73.5349 35.9214 73.3627 35.992C73.1888 36.0628 73 36.0893 72.8133 36.0693C72.6303 36.039 72.461 35.9533 72.328 35.824C72.4684 35.9377 72.6389 36.0082 72.8187 36.0266C72.9964 36.0346 73.1734 35.9979 73.3333 35.92C73.6499 35.7564 73.9281 35.5273 74.1493 35.248L74.328 35.0346L74.2613 35.3013C74.1551 35.6489 74.1551 36.0204 74.2613 36.368C74.2896 36.4451 74.3335 36.5155 74.3905 36.5748C74.4474 36.634 74.516 36.6807 74.592 36.712C74.752 36.7717 74.9246 36.7892 75.0933 36.7626C75.4401 36.6953 75.7512 36.5061 75.9707 36.2293C76.2058 35.9529 76.3949 35.6405 76.5307 35.304L76.8187 34.592L76.7093 35.352C76.6438 35.7034 76.6677 36.0656 76.7787 36.4053C76.8349 36.5634 76.9494 36.6941 77.0987 36.7706C77.2589 36.8311 77.4338 36.8414 77.6 36.8C77.9498 36.7005 78.2542 36.4828 78.4613 36.184C78.6896 35.8911 78.8762 35.568 79.016 35.224Z" fill="#263238"/>
<path d="M83.6107 90.984C88.4811 90.984 92.4293 87.0358 92.4293 82.1653C92.4293 77.2949 88.4811 73.3467 83.6107 73.3467C78.7402 73.3467 74.792 77.2949 74.792 82.1653C74.792 87.0358 78.7402 90.984 83.6107 90.984Z" fill="#4898C6"/>
<path d="M84.5173 76.7173H82.7067V87.6107H84.5173V76.7173Z" fill="white"/>
<path d="M89.0587 83.072V81.2614H78.1654V83.072H89.0587Z" fill="white"/>
</svg>
