<svg width="186" height="186" viewBox="0 0 186 186" fill="none" xmlns="http://www.w3.org/2000/svg">
<circle cx="93.5" cy="93.5" r="65.5" fill="#C5EAFF"/>
<path d="M186 142.253H0V142.346H186V142.253Z" fill="#EBEBEB"/>
<path d="M167.363 148.238H159.298V148.331H167.363V148.238Z" fill="#EBEBEB"/>
<path d="M128.217 146.311H115.528V146.404H128.217V146.311Z" fill="#EBEBEB"/>
<path d="M164.097 144.786H147.531V144.879H164.097V144.786Z" fill="#EBEBEB"/>
<path d="M64.3634 146.661H60.2194V146.754H64.3634V146.661Z" fill="#EBEBEB"/>
<path d="M56.9049 146.661H42.6238V146.754H56.9049V146.661Z" fill="#EBEBEB"/>
<path d="M34.9718 145.091H24.6674V145.184H34.9718V145.091Z" fill="#EBEBEB"/>
<path d="M88.164 125.662H16.3345C15.7718 125.661 15.2325 125.436 14.8349 125.038C14.4374 124.64 14.2141 124.1 14.2141 123.537V22.5655C14.219 22.0061 14.4445 21.4711 14.8415 21.0769C15.2385 20.6826 15.775 20.461 16.3345 20.46H88.164C88.7274 20.46 89.2676 20.6838 89.666 21.0822C90.0643 21.4805 90.2881 22.0208 90.2881 22.5841V123.537C90.2881 124.101 90.0643 124.641 89.666 125.039C89.2676 125.438 88.7274 125.662 88.164 125.662ZM16.3345 20.5344C15.7965 20.5354 15.2808 20.7498 14.9007 21.1306C14.5206 21.5114 14.3071 22.0275 14.3071 22.5655V123.537C14.3071 124.076 14.5206 124.592 14.9007 124.972C15.2808 125.353 15.7965 125.568 16.3345 125.569H88.164C88.7024 125.568 89.2184 125.353 89.5991 124.973C89.9798 124.592 90.1941 124.076 90.1951 123.537V22.5655C90.1941 22.0272 89.9798 21.5111 89.5991 21.1304C89.2184 20.7497 88.7024 20.5354 88.164 20.5344H16.3345Z" fill="#EBEBEB"/>
<path d="M168.631 125.662H96.7982C96.2351 125.661 95.6954 125.437 95.2973 125.038C94.8992 124.64 94.6751 124.101 94.6741 123.537V22.5655C94.6799 22.0057 94.9062 21.4708 95.3038 21.0766C95.7014 20.6825 96.2383 20.461 96.7982 20.46H168.631C169.19 20.462 169.726 20.6841 170.122 21.0782C170.518 21.4723 170.743 22.0067 170.748 22.5655V123.537C170.748 124.1 170.525 124.639 170.129 125.037C169.732 125.435 169.193 125.66 168.631 125.662ZM96.7982 20.5344C96.2598 20.5354 95.7438 20.7497 95.3631 21.1304C94.9824 21.5111 94.7681 22.0272 94.7671 22.5655V123.537C94.7681 124.076 94.9824 124.592 95.3631 124.973C95.7438 125.353 96.2598 125.568 96.7982 125.569H168.631C169.17 125.568 169.686 125.353 170.067 124.973C170.447 124.592 170.662 124.076 170.663 123.537V22.5655C170.662 22.0272 170.447 21.5111 170.067 21.1304C169.686 20.7497 169.17 20.5354 168.631 20.5344H96.7982Z" fill="#EBEBEB"/>
<path d="M42.78 64.9624C44.843 64.9624 46.8215 64.1429 48.2803 62.6841C49.739 61.2253 50.5585 59.2468 50.5585 57.1839C50.5585 55.1209 49.739 53.1424 48.2803 51.6836C46.8215 50.2249 44.843 49.4053 42.78 49.4053H41.824V64.9624H42.78Z" fill="#E0E0E0"/>
<path d="M41.8165 64.9624C46.1124 64.9624 49.595 61.4798 49.595 57.1839C49.595 52.8879 46.1124 49.4053 41.8165 49.4053C37.5205 49.4053 34.038 52.8879 34.038 57.1839C34.038 61.4798 37.5205 64.9624 41.8165 64.9624Z" fill="#F5F5F5"/>
<path d="M41.4595 58.1585C38.697 58.1585 36.0476 57.0611 34.0942 55.1077C32.1409 53.1544 31.0435 50.505 31.0435 47.7425V41.5264C31.0435 41.2669 31.1465 41.0181 31.33 40.8346C31.5135 40.6511 31.7623 40.548 32.0218 40.548C32.2813 40.548 32.5301 40.6511 32.7136 40.8346C32.8971 41.0181 33.0002 41.2669 33.0002 41.5264V47.7462C33.0021 49.9885 33.8935 52.1385 35.4787 53.7244C37.0639 55.3103 39.2134 56.2026 41.4557 56.2055C41.589 56.1973 41.7226 56.2164 41.8482 56.2618C41.9739 56.3071 42.0889 56.3777 42.1862 56.4692C42.2835 56.5607 42.361 56.6711 42.414 56.7937C42.4671 56.9163 42.4944 57.0485 42.4944 57.182C42.4944 57.3156 42.4671 57.4477 42.414 57.5703C42.361 57.6929 42.2835 57.8033 42.1862 57.8948C42.0889 57.9863 41.9739 58.0569 41.8482 58.1022C41.7226 58.1476 41.589 58.1667 41.4557 58.1585H41.4595Z" fill="#E0E0E0"/>
<path d="M23.3728 47.0022H40.6782C40.955 47.0023 41.2281 46.9388 41.4764 46.8166C41.7248 46.6945 41.9417 46.517 42.1107 46.2977C42.2796 46.0785 42.3959 45.8234 42.4507 45.5521C42.5055 45.2809 42.4972 45.0006 42.4266 44.733L40.92 39.06C40.8183 38.6746 40.5921 38.3337 40.2766 38.0901C39.9611 37.8466 39.5739 37.7141 39.1753 37.7134H24.8757C24.4766 37.7139 24.0889 37.8462 23.7727 38.0897C23.4566 38.3333 23.2297 38.6743 23.1273 39.06L21.6393 44.7256C21.5668 44.9925 21.5567 45.2725 21.6098 45.5439C21.6628 45.8154 21.7775 46.071 21.9451 46.291C22.1126 46.5111 22.3285 46.6897 22.5761 46.813C22.8236 46.9363 23.0962 47.001 23.3728 47.0022Z" fill="#F5F5F5"/>
<path d="M152.624 64.9624C154.687 64.9624 156.666 64.1429 158.124 62.6841C159.583 61.2253 160.403 59.2468 160.403 57.1839C160.403 55.1209 159.583 53.1424 158.124 51.6836C156.666 50.2249 154.687 49.4053 152.624 49.4053H151.668V64.9624H152.624Z" fill="#E0E0E0"/>
<path d="M151.668 64.9624C155.964 64.9624 159.447 61.4798 159.447 57.1839C159.447 52.8879 155.964 49.4053 151.668 49.4053C147.372 49.4053 143.89 52.8879 143.89 57.1839C143.89 61.4798 147.372 64.9624 151.668 64.9624Z" fill="#F5F5F5"/>
<path d="M151.311 58.1585C148.549 58.1585 145.899 57.0611 143.946 55.1077C141.992 53.1544 140.895 50.505 140.895 47.7425V41.5264C140.895 41.2669 140.998 41.0181 141.182 40.8346C141.365 40.6511 141.614 40.548 141.873 40.548C142.133 40.548 142.382 40.6511 142.565 40.8346C142.749 41.0181 142.852 41.2669 142.852 41.5264V47.7462C142.854 49.9885 143.745 52.1385 145.33 53.7244C146.915 55.3103 149.065 56.2026 151.307 56.2055C151.441 56.1973 151.574 56.2164 151.7 56.2618C151.825 56.3071 151.94 56.3777 152.038 56.4692C152.135 56.5607 152.213 56.6711 152.266 56.7937C152.319 56.9163 152.346 57.0485 152.346 57.182C152.346 57.3156 152.319 57.4477 152.266 57.5703C152.213 57.6929 152.135 57.8033 152.038 57.8948C151.94 57.9863 151.825 58.0569 151.7 58.1022C151.574 58.1476 151.441 58.1667 151.307 58.1585H151.311Z" fill="#E0E0E0"/>
<path d="M133.224 47.0022H150.53C150.807 47.0023 151.08 46.9388 151.328 46.8166C151.576 46.6945 151.793 46.517 151.962 46.2977C152.131 46.0785 152.248 45.8234 152.302 45.5521C152.357 45.2809 152.349 45.0006 152.278 44.733L150.79 39.0675C150.689 38.6821 150.462 38.3411 150.147 38.0976C149.831 37.854 149.444 37.7216 149.046 37.7208H134.727C134.328 37.7214 133.941 37.8537 133.624 38.0972C133.308 38.3407 133.081 38.6818 132.979 39.0675L131.491 44.733C131.42 44.9995 131.411 45.2786 131.464 45.5491C131.518 45.8196 131.633 46.0742 131.8 46.2933C131.968 46.5124 132.183 46.6903 132.43 46.8132C132.677 46.9361 132.949 47.0007 133.224 47.0022Z" fill="#F5F5F5"/>
<path d="M49.8405 117.5H55.4987V95.578H49.8405V117.5Z" fill="#E6E6E6"/>
<path d="M34.5031 117.496H53.2779L56.1125 91.8394H37.3377L34.5031 117.496Z" fill="#F0F0F0"/>
<path d="M32.4681 117.496H51.8642L54.6989 91.8394H35.3065L32.4681 117.496Z" fill="#F5F5F5"/>
<path d="M50.4618 115.476L52.8501 93.863H36.7053L34.317 115.476H50.4618Z" fill="white"/>
<path d="M47.1286 110.235L47.244 109.368C47.8429 103.944 44.4577 99.112 40.0606 99.112L39.9602 99.9936C39.3613 105.414 42.7465 110.246 47.1472 110.246L47.1286 110.235Z" fill="#F5F5F5"/>
<path d="M21.9815 142.253H38.662V117.496H21.9815L21.9815 142.253Z" fill="#E6E6E6"/>
<path d="M23.6555 142.253H21.9778V137.48H25.4151L23.6555 142.253Z" fill="#F0F0F0"/>
<path d="M68.7308 142.253H85.4113V117.496H68.7308V142.253Z" fill="#E6E6E6"/>
<path d="M21.9777 139.325H70.1926V117.5H21.9777V139.325Z" fill="#F0F0F0"/>
<path d="M68.5149 142.253H70.1927V137.48H66.7554L68.5149 142.253Z" fill="#F0F0F0"/>
<path d="M23.2798 127.67H68.8907V118.861H23.2798V127.67Z" fill="#E6E6E6"/>
<path d="M43.0441 124.62H49.1263C50.434 124.621 51.7281 124.354 52.9293 123.837C54.1306 123.321 55.2137 122.564 56.1125 121.614H36.058C36.9572 122.564 38.0404 123.32 39.2415 123.837C40.4427 124.353 41.7365 124.62 43.0441 124.62Z" fill="#F0F0F0"/>
<path d="M23.2798 137.9H68.8907V129.091H23.2798V137.9Z" fill="#E6E6E6"/>
<path d="M43.0441 134.835H49.1263C50.434 134.836 51.7281 134.569 52.9293 134.053C54.1306 133.536 55.2137 132.779 56.1125 131.829H36.058C36.9572 132.779 38.0404 133.535 39.2415 134.052C40.4427 134.568 41.7365 134.835 43.0441 134.835Z" fill="#F0F0F0"/>
<path d="M67.1386 116.488H67.5701C67.5701 115.599 67.5701 113.348 67.6147 108.189C67.6928 98.833 67.8416 98.2638 67.8416 98.2638L66.8149 102.583C66.1639 107.363 67.0046 112.169 67.1386 116.488Z" fill="#E6E6E6"/>
<path d="M66.2867 101.928C64.7987 100.168 61.6553 99.6551 58.4264 99.2161C57.1578 99.045 61.7558 101.943 64.0064 104C65.7548 105.6 66.8708 106.042 67.3544 107.634C67.5999 105.648 67.559 103.457 66.2867 101.928Z" fill="#E6E6E6"/>
<path d="M68.2471 105.083C69.7351 103.323 72.8785 102.813 76.1075 102.374C77.376 102.203 72.7595 105.101 70.5275 107.158C68.7791 108.758 67.6631 109.201 67.1795 110.793C66.9339 108.806 66.96 106.6 68.2471 105.083Z" fill="#E6E6E6"/>
<path d="M67.6147 97.836C68.7307 95.7305 71.5058 93.744 74.6344 93C75.862 92.7061 71.7886 96.8837 70.241 99.5807C69.0395 101.671 67.4473 104.134 67.1981 105.905C66.8261 102.415 66.5062 99.9527 67.6147 97.836Z" fill="#E6E6E6"/>
<path d="M67.4808 117.496C66.1639 117.496 65.074 116.838 64.9958 115.99L64.7764 114.546H70.189L69.9658 115.99C69.8914 116.838 68.82 117.496 67.4808 117.496Z" fill="#F0F0F0"/>
<path d="M70.5386 115.101H64.4267L64.2518 113.49H70.7135L70.5386 115.101Z" fill="#F0F0F0"/>
<path d="M63.0689 84.3398L122.667 84.3398V29.9795L63.0689 29.9795L63.0689 84.3398Z" fill="#E6E6E6"/>
<path d="M61.7297 84.3398L122.083 84.3398V29.9795L61.7297 29.9795L61.7297 84.3398Z" fill="#F5F5F5"/>
<path d="M119.672 81.9069V32.4161H64.1328V81.9069H119.672Z" fill="#FAFAFA"/>
<path d="M112.861 81.9069L91.0024 32.4161H83.5773L105.436 81.9069H112.861Z" fill="white"/>
<path d="M103.33 81.9069L81.4718 32.4161H76.3605L98.2192 81.9069H103.33Z" fill="white"/>
<path d="M84.7565 81.9032V32.4124H81.8846V81.9032H84.7565Z" fill="#E6E6E6"/>
<path d="M103.848 81.9032V32.4124H100.976V81.9032H103.848Z" fill="#E6E6E6"/>
<path d="M84.2394 83.4508V30.6044H80.6087V83.4508H84.2394Z" fill="#F5F5F5"/>
<path d="M103.33 83.4508V30.6045H99.6997V83.4508H103.33Z" fill="#F5F5F5"/>
<path d="M64.3932 81.907V32.4161H64.1365V81.907H64.3932Z" fill="#E6E6E6"/>
<path d="M60.7179 26.8473H125.282C125.365 26.8483 125.444 26.8815 125.502 26.9399C125.56 26.9983 125.594 27.0772 125.595 27.1598C125.594 27.242 125.56 27.3205 125.502 27.3783C125.443 27.4361 125.364 27.4685 125.282 27.4685H60.7179C60.6356 27.4685 60.5567 27.4361 60.4982 27.3783C60.4397 27.3205 60.4064 27.242 60.4054 27.1598C60.4064 27.0772 60.4396 26.9983 60.498 26.9399C60.5564 26.8815 60.6353 26.8483 60.7179 26.8473Z" fill="#E6E6E6"/>
<path d="M122.667 28.897C122.778 28.896 122.884 28.8513 122.962 28.7725C123.04 28.6938 123.084 28.5875 123.084 28.4766V27.5764C123.084 27.5213 123.074 27.4668 123.053 27.4158C123.032 27.3648 123.002 27.3184 122.963 27.2793C122.924 27.2403 122.878 27.2092 122.827 27.1881C122.777 27.1669 122.722 27.156 122.667 27.156C122.556 27.156 122.45 27.1998 122.371 27.2778C122.292 27.3558 122.248 27.4618 122.247 27.5726V28.4729C122.247 28.5847 122.291 28.692 122.37 28.7714C122.448 28.8509 122.555 28.896 122.667 28.897Z" fill="#E6E6E6"/>
<path d="M65.3976 28.897C65.5088 28.896 65.6152 28.8514 65.6938 28.7728C65.7724 28.6941 65.817 28.5878 65.818 28.4766V27.5764C65.818 27.4649 65.7737 27.358 65.6949 27.2791C65.616 27.2003 65.5091 27.156 65.3976 27.156C65.2871 27.156 65.1811 27.1999 65.103 27.278C65.0249 27.3562 64.981 27.4621 64.981 27.5726V28.4729C64.9805 28.5281 64.9909 28.5828 65.0115 28.634C65.0322 28.6852 65.0628 28.7318 65.1015 28.7712C65.1402 28.8106 65.1862 28.842 65.237 28.8635C65.2878 28.8851 65.3424 28.8965 65.3976 28.897Z" fill="#E6E6E6"/>
<path opacity="0.6" d="M60.8146 69.7277L121.127 69.7277V27.156L60.8146 27.156L60.8146 69.7277Z" fill="#E0E0E0"/>
<path d="M126.588 96.7089H116.187C115.081 96.7089 114.185 97.6049 114.185 98.7102V103.524C114.185 104.629 115.081 105.525 116.187 105.525H126.588C127.693 105.525 128.589 104.629 128.589 103.524V98.7102C128.589 97.6049 127.693 96.7089 126.588 96.7089Z" fill="#FAFAFA"/>
<path d="M127.916 95.0795H114.859C114.487 95.0795 114.185 95.381 114.185 95.7528V96.296C114.185 96.6678 114.487 96.9693 114.859 96.9693H127.916C128.288 96.9693 128.589 96.6678 128.589 96.296V95.7528C128.589 95.381 128.288 95.0795 127.916 95.0795Z" fill="#E6E6E6"/>
<path d="M114.397 115.32C114.397 115.32 114.587 121.521 121.811 121.521C129.036 121.521 129.225 115.32 129.225 115.32H114.397Z" fill="#F0F0F0"/>
<path d="M130.87 115.32C130.87 115.32 131.059 121.521 138.284 121.521C145.508 121.521 145.698 115.32 145.698 115.32H130.87Z" fill="#F0F0F0"/>
<path d="M142.119 92.7173H127.834C126.314 92.7173 125.081 93.9498 125.081 95.4701V102.776C125.081 104.296 126.314 105.529 127.834 105.529H142.119C143.639 105.529 144.872 104.296 144.872 102.776V95.4701C144.872 93.9498 143.639 92.7173 142.119 92.7173Z" fill="#F0F0F0"/>
<path d="M143.949 90.4778H126.004C125.494 90.4778 125.081 90.8909 125.081 91.4004V92.1518C125.081 92.6614 125.494 93.0744 126.004 93.0744H143.949C144.459 93.0744 144.872 92.6614 144.872 92.1518V91.4004C144.872 90.8909 144.459 90.4778 143.949 90.4778Z" fill="#F5F5F5"/>
<path d="M108.955 142.253H110.83V111.511H108.955V142.253Z" fill="#E6E6E6"/>
<path d="M163.092 105.525H152.94V111.507H163.092V105.525Z" fill="#E6E6E6"/>
<path d="M102.464 111.511H152.937V105.529H102.464V111.511Z" fill="#F5F5F5"/>
<path d="M163.092 121.503H152.94V127.484H163.092V121.503Z" fill="#E6E6E6"/>
<path d="M102.464 127.484H152.937V121.503H102.464V127.484Z" fill="#F5F5F5"/>
<path d="M159.428 142.253H161.303V111.511H159.428V142.253Z" fill="#E6E6E6"/>
<path d="M151.066 142.253H152.94V111.511H151.066V142.253Z" fill="#F5F5F5"/>
<path d="M102.464 142.253H104.339V111.511H102.464V142.253Z" fill="#F5F5F5"/>
<path d="M93 159.052C132.835 159.052 165.127 157.167 165.127 154.841C165.127 152.516 132.835 150.63 93 150.63C53.1653 150.63 20.8729 152.516 20.8729 154.841C20.8729 157.167 53.1653 159.052 93 159.052Z" fill="#F5F5F5"/>
<path d="M96.8726 135.966H49.4165C48.6534 135.955 47.9226 135.656 47.3706 135.129C46.8187 134.602 46.4864 133.886 46.4405 133.124L42.1848 50.7073C42.1612 50.3407 42.2136 49.9732 42.3387 49.6277C42.4638 49.2823 42.6589 48.9665 42.9117 48.7C43.1646 48.4336 43.4698 48.2222 43.8081 48.0792C44.1465 47.9361 44.5108 47.8646 44.8781 47.8689H92.3342C93.0969 47.8788 93.8277 48.1769 94.3798 48.7034C94.9318 49.2299 95.2642 49.9458 95.3101 50.7073L99.5584 133.124C99.5819 133.49 99.5297 133.857 99.4051 134.202C99.2805 134.547 99.0862 134.863 98.8342 135.13C98.5822 135.396 98.278 135.608 97.9405 135.752C97.603 135.896 97.2394 135.969 96.8726 135.966Z" fill="#4898C6"/>
<path opacity="0.8" d="M96.8726 135.966H49.4165C48.6534 135.955 47.9226 135.656 47.3706 135.129C46.8187 134.602 46.4864 133.886 46.4405 133.124L42.1848 50.7073C42.1612 50.3407 42.2136 49.9732 42.3387 49.6277C42.4638 49.2823 42.6589 48.9665 42.9117 48.7C43.1646 48.4336 43.4698 48.2222 43.8081 48.0792C44.1465 47.9361 44.5108 47.8646 44.8781 47.8689H92.3342C93.0969 47.8788 93.8277 48.1769 94.3798 48.7034C94.9318 49.2299 95.2642 49.9458 95.3101 50.7073L99.5584 133.124C99.5819 133.49 99.5297 133.857 99.4051 134.202C99.2805 134.547 99.0862 134.863 98.8342 135.13C98.5822 135.396 98.278 135.608 97.9405 135.752C97.603 135.896 97.2394 135.969 96.8726 135.966Z" fill="white"/>
<path d="M87.6507 45.1831H82.4017V45.5551H87.6507V45.1831Z" fill="#4898C6"/>
<path d="M80.5827 45.1831H78.6594V45.5551H80.5827V45.1831Z" fill="#4898C6"/>
<path d="M98.9148 130.736H53.5308C52.7999 130.729 52.0989 130.445 51.5688 129.942C51.0387 129.439 50.7189 128.753 50.6738 128.024L46.6116 49.197C46.589 48.8462 46.6392 48.4944 46.7589 48.1639C46.8787 47.8334 47.0654 47.5311 47.3075 47.2762C47.5495 47.0212 47.8416 46.819 48.1655 46.6822C48.4894 46.5455 48.838 46.4771 49.1895 46.4814H94.5735C95.3043 46.4895 96.005 46.7741 96.5344 47.2779C97.0638 47.7818 97.3826 48.4675 97.4268 49.197L101.489 128.024C101.512 128.374 101.462 128.725 101.342 129.055C101.222 129.386 101.036 129.687 100.794 129.942C100.553 130.197 100.261 130.399 99.9374 130.535C99.614 130.672 99.2658 130.74 98.9148 130.736Z" fill="#4898C6"/>
<path d="M98.9149 128.924H53.5309C53.2647 128.915 53.0112 128.808 52.8185 128.624C52.6258 128.441 52.5073 128.192 52.4856 127.927L48.4196 49.104C48.4104 48.9991 48.4235 48.8935 48.4582 48.7941C48.4928 48.6947 48.5481 48.6038 48.6205 48.5274C48.693 48.4511 48.781 48.3911 48.8784 48.3514C48.9759 48.3116 49.0807 48.293 49.1859 48.2967H94.5699C94.8354 48.3068 95.088 48.4138 95.28 48.5975C95.4719 48.7812 95.5899 49.0289 95.6115 49.2937L99.6961 128.117C99.705 128.221 99.6918 128.326 99.6573 128.425C99.6227 128.524 99.5676 128.615 99.4956 128.691C99.4236 128.767 99.3363 128.828 99.2394 128.868C99.1426 128.908 99.0383 128.927 98.9335 128.924H98.9149ZM49.1859 48.3897C49.0934 48.3867 49.0013 48.4031 48.9155 48.4376C48.8297 48.4722 48.752 48.5243 48.6874 48.5906C48.6253 48.6593 48.5778 48.7399 48.5478 48.8275C48.5177 48.9151 48.5057 49.0079 48.5126 49.1003L52.5748 127.923C52.5955 128.165 52.7038 128.39 52.8792 128.557C53.0546 128.725 53.285 128.822 53.5272 128.831H98.9112C99.0032 128.835 99.0949 128.819 99.1802 128.784C99.2655 128.749 99.3425 128.697 99.4059 128.63C99.4696 128.562 99.518 128.482 99.5482 128.394C99.5783 128.306 99.5894 128.213 99.5808 128.12L95.5222 49.2974C95.5024 49.0563 95.3949 48.8308 95.2202 48.6636C95.0454 48.4963 94.8154 48.3989 94.5736 48.3897H49.1859Z" fill="white"/>
<path opacity="0.3" d="M83.0404 77.0247C88.2024 71.7277 87.8662 63.0282 82.2896 57.5939C76.7131 52.1595 68.0078 52.0482 62.8459 57.3452C57.684 62.6422 58.0201 71.3417 63.5967 76.776C69.1732 82.2104 77.8785 82.3217 83.0404 77.0247Z" fill="white"/>
<path d="M84.0721 67.1869C84.1762 69.015 83.8085 70.8391 83.0044 72.4842C82.134 74.2486 80.7828 75.7313 79.1065 76.7613C77.4302 77.7913 75.497 78.3268 73.5296 78.306C71.4908 78.2876 69.4914 77.7418 67.7261 76.7216C65.9608 75.7014 64.4896 74.2416 63.4558 72.4842C62.4923 70.8771 61.938 69.0582 61.8413 67.1869C61.7496 65.7518 61.9551 64.3133 62.4449 62.9612C62.9347 61.6092 63.6983 60.3728 64.6879 59.3295C65.6774 58.2861 66.8717 57.4582 68.196 56.8976C69.5202 56.3371 70.9459 56.0558 72.3838 56.0715C75.3766 56.1027 78.2464 57.2668 80.4151 59.3293C82.5839 61.3918 83.8906 64.1995 84.0721 67.1869Z" fill="white"/>
<path d="M82.9932 72.4842C82.1228 74.2486 80.7715 75.7313 79.0952 76.7613C77.4189 77.7913 75.4857 78.3267 73.5183 78.306C71.4795 78.2876 69.4802 77.7417 67.7149 76.7215C65.9495 75.7013 64.4784 74.2415 63.4446 72.4842C66.2715 70.5318 69.629 69.4932 73.0645 69.5082C76.5919 69.5214 80.0401 70.555 82.9932 72.4842Z" fill="#4898C6"/>
<path d="M76.3892 66.9284C78.2489 65.02 78.1272 61.8851 76.1172 59.9265C74.1073 57.9678 70.9703 57.927 69.1106 59.8354C67.2509 61.7438 67.3726 64.8787 69.3826 66.8374C71.3925 68.796 74.5295 68.8368 76.3892 66.9284Z" fill="#4898C6"/>
<path d="M92.4085 100.068H56.8714C56.5619 100.065 56.265 99.9444 56.0407 99.7311C55.8164 99.5178 55.6812 99.2275 55.6624 98.9185L55.3945 93.7105C55.3853 93.5623 55.4068 93.4139 55.4575 93.2744C55.5083 93.1349 55.5873 93.0074 55.6896 92.8999C55.7919 92.7923 55.9153 92.7071 56.0521 92.6494C56.1889 92.5917 56.3361 92.5629 56.4845 92.5647H92.0217C92.3306 92.5678 92.6269 92.6877 92.8511 92.9002C93.0754 93.1127 93.211 93.4022 93.2307 93.7105L93.4985 98.9185C93.5083 99.0669 93.4872 99.2158 93.4367 99.3557C93.3861 99.4956 93.3072 99.6236 93.2048 99.7315C93.1025 99.8395 92.9789 99.9251 92.8419 99.983C92.7048 100.041 92.5573 100.07 92.4085 100.068Z" fill="white"/>
<path opacity="0.3" d="M81.5276 89.6892H66.6848C66.374 89.6868 66.0757 89.5664 65.8505 89.3522C65.6253 89.138 65.49 88.8462 65.4721 88.5359L65.4163 87.4199C65.4065 87.2715 65.4276 87.1226 65.4781 86.9827C65.5286 86.8428 65.6076 86.7148 65.7099 86.6069C65.8123 86.4989 65.9359 86.4133 66.0729 86.3554C66.2099 86.2975 66.3575 86.2686 66.5062 86.2705H81.3453C81.6548 86.2737 81.9517 86.394 82.176 86.6073C82.4003 86.8206 82.5355 87.111 82.5543 87.4199L82.6138 88.5359C82.623 88.6841 82.6017 88.8326 82.5512 88.9722C82.5007 89.1118 82.4221 89.2396 82.3203 89.3477C82.2186 89.4558 82.0957 89.5418 81.9593 89.6005C81.823 89.6593 81.676 89.6894 81.5276 89.6892Z" fill="black"/>
<path opacity="0.3" d="M87.048 125.107H64.8135C64.287 125.101 63.7825 124.896 63.4009 124.533C63.0194 124.17 62.7892 123.676 62.7564 123.151L62.6262 120.584C62.613 120.332 62.6514 120.079 62.739 119.842C62.8266 119.605 62.9615 119.389 63.1355 119.206C63.3096 119.022 63.5191 118.877 63.7513 118.777C63.9835 118.678 64.2336 118.627 64.4862 118.627H86.7132C87.2397 118.634 87.7442 118.839 88.1258 119.202C88.5073 119.565 88.7375 120.058 88.7703 120.584L88.9005 123.151C88.9136 123.402 88.8755 123.654 88.7883 123.89C88.7012 124.127 88.567 124.343 88.3937 124.526C88.2205 124.709 88.0119 124.855 87.7805 124.955C87.5492 125.055 87.3 125.107 87.048 125.107Z" fill="black"/>
<path d="M93.0596 112.664H57.5187C57.2094 112.66 56.9131 112.539 56.689 112.326C56.4648 112.113 56.3294 111.823 56.3097 111.514L56.0419 106.306C56.0327 106.158 56.0541 106.009 56.1049 105.87C56.1556 105.73 56.2345 105.602 56.3368 105.495C56.439 105.387 56.5624 105.301 56.6992 105.243C56.836 105.185 56.9832 105.156 57.1318 105.157H92.669C92.9785 105.16 93.2753 105.28 93.4997 105.494C93.724 105.707 93.8592 105.997 93.878 106.306L94.1496 111.514C94.1582 111.663 94.1364 111.811 94.0854 111.95C94.0345 112.09 93.9555 112.217 93.8534 112.325C93.7512 112.433 93.6281 112.518 93.4916 112.577C93.3551 112.635 93.208 112.665 93.0596 112.664Z" fill="white"/>
<path d="M61.38 96.3145C61.3903 96.4789 61.3665 96.6436 61.3102 96.7984C61.2539 96.9532 61.1663 97.0947 61.0528 97.2141C60.9394 97.3335 60.8025 97.4282 60.6508 97.4923C60.4991 97.5565 60.3358 97.5886 60.171 97.5867C59.8289 97.5827 59.501 97.4492 59.2532 97.2132C59.0054 96.9771 58.8562 96.6561 58.8356 96.3145C58.8248 96.1503 58.8481 95.9856 58.9039 95.8309C58.9598 95.6761 59.0471 95.5345 59.1603 95.415C59.2734 95.2956 59.4101 95.2008 59.5616 95.1367C59.7131 95.0725 59.8763 95.0404 60.0408 95.0423C60.3834 95.0463 60.7118 95.1796 60.9601 95.4156C61.2085 95.6515 61.3585 95.9726 61.38 96.3145Z" fill="#263238"/>
<path d="M65.2972 96.3145C65.308 96.4787 65.2847 96.6434 65.2289 96.7981C65.173 96.9529 65.0857 97.0945 64.9725 97.2139C64.8594 97.3334 64.7227 97.4282 64.5712 97.4923C64.4197 97.5565 64.2565 97.5886 64.0919 97.5867C63.7495 97.5835 63.4211 97.4504 63.1732 97.2141C62.9252 96.9779 62.7763 96.6564 62.7565 96.3145C62.7457 96.1503 62.769 95.9856 62.8248 95.8309C62.8807 95.6761 62.968 95.5345 63.0812 95.415C63.1943 95.2956 63.331 95.2008 63.4825 95.1367C63.634 95.0725 63.7972 95.0404 63.9618 95.0423C64.3042 95.0455 64.6326 95.1786 64.8805 95.4148C65.1285 95.651 65.2774 95.9726 65.2972 96.3145Z" fill="#263238"/>
<path d="M69.1921 96.3145C69.2028 96.4787 69.1796 96.6434 69.1237 96.7981C69.0678 96.9529 68.9806 97.0945 68.8674 97.2139C68.7542 97.3334 68.6176 97.4282 68.466 97.4923C68.3145 97.5565 68.1513 97.5886 67.9868 97.5867C67.6442 97.5827 67.3159 97.4494 67.0675 97.2134C66.8191 96.9775 66.6691 96.6564 66.6476 96.3145C66.6373 96.1501 66.6611 95.9854 66.7174 95.8306C66.7737 95.6758 66.8613 95.5343 66.9748 95.4149C67.0883 95.2955 67.2251 95.2008 67.3768 95.1366C67.5286 95.0725 67.6919 95.0404 67.8566 95.0423C68.1987 95.0463 68.5267 95.1798 68.7744 95.4158C69.0222 95.6518 69.1714 95.9729 69.1921 96.3145Z" fill="#263238"/>
<path d="M73.1166 96.3145C73.1268 96.4786 73.1032 96.643 73.0471 96.7975C72.991 96.9521 72.9037 97.0934 72.7907 97.2128C72.6776 97.3321 72.5412 97.4269 72.3899 97.4912C72.2386 97.5556 72.0757 97.5881 71.9113 97.5867C71.5688 97.5827 71.2404 97.4494 70.9921 97.2135C70.7437 96.9775 70.5937 96.6564 70.5721 96.3145C70.5619 96.1504 70.5856 95.986 70.6417 95.8315C70.6977 95.6769 70.785 95.5356 70.8981 95.4163C71.0111 95.2969 71.1476 95.2021 71.2988 95.1378C71.4501 95.0734 71.613 95.0409 71.7774 95.0423C72.12 95.0463 72.4483 95.1796 72.6967 95.4156C72.9451 95.6515 73.0951 95.9726 73.1166 96.3145Z" fill="#263238"/>
<path d="M62.0385 108.903C62.0493 109.067 62.026 109.232 61.9701 109.387C61.9143 109.541 61.827 109.683 61.7138 109.802C61.6006 109.922 61.464 110.017 61.3125 110.081C61.1609 110.145 60.9978 110.177 60.8332 110.175C60.4907 110.171 60.1623 110.038 59.9139 109.802C59.6656 109.566 59.5156 109.245 59.494 108.903C59.4838 108.739 59.5076 108.574 59.5639 108.419C59.6202 108.264 59.7078 108.123 59.8212 108.003C59.9347 107.884 60.0716 107.789 60.2233 107.725C60.375 107.661 60.5383 107.629 60.703 107.631C61.0452 107.635 61.3731 107.768 61.6209 108.004C61.8686 108.24 62.0178 108.561 62.0385 108.903Z" fill="#263238"/>
<path d="M65.9482 108.903C65.9584 109.067 65.9347 109.232 65.8786 109.386C65.8226 109.541 65.7353 109.682 65.6222 109.801C65.5092 109.921 65.3727 110.015 65.2215 110.08C65.0702 110.144 64.9073 110.177 64.7429 110.175C64.4003 110.171 64.072 110.038 63.8236 109.802C63.5752 109.566 63.4252 109.245 63.4037 108.903C63.3929 108.739 63.4162 108.574 63.4721 108.419C63.5279 108.265 63.6152 108.123 63.7284 108.004C63.8415 107.884 63.9782 107.789 64.1297 107.725C64.2813 107.661 64.4444 107.629 64.609 107.631C64.9515 107.635 65.2799 107.768 65.5282 108.004C65.7766 108.24 65.9266 108.561 65.9482 108.903Z" fill="#263238"/>
<path d="M69.858 108.903C69.8682 109.067 69.8444 109.232 69.7881 109.387C69.7318 109.542 69.6442 109.683 69.5307 109.803C69.4173 109.922 69.2804 110.017 69.1287 110.081C68.977 110.145 68.8137 110.177 68.649 110.175C68.3065 110.172 67.9781 110.039 67.7302 109.803C67.4822 109.566 67.3333 109.245 67.3135 108.903C67.3027 108.739 67.326 108.574 67.3819 108.419C67.4377 108.265 67.525 108.123 67.6382 108.004C67.7513 107.884 67.888 107.789 68.0395 107.725C68.191 107.661 68.3542 107.629 68.5188 107.631C68.8613 107.635 69.1897 107.768 69.438 108.004C69.6864 108.24 69.8364 108.561 69.858 108.903Z" fill="#263238"/>
<path d="M73.764 108.903C73.7747 109.067 73.7515 109.232 73.6956 109.387C73.6397 109.541 73.5525 109.683 73.4393 109.802C73.3261 109.922 73.1895 110.017 73.0379 110.081C72.8864 110.145 72.7232 110.177 72.5587 110.175C72.2161 110.171 71.8878 110.038 71.6394 109.802C71.391 109.566 71.241 109.245 71.2195 108.903C71.2092 108.739 71.233 108.574 71.2893 108.419C71.3456 108.264 71.4332 108.123 71.5467 108.003C71.6602 107.884 71.797 107.789 71.9488 107.725C72.1005 107.661 72.2638 107.629 72.4285 107.631C72.7709 107.634 73.0993 107.767 73.3473 108.003C73.5952 108.24 73.7442 108.561 73.764 108.903Z" fill="#263238"/>
<path d="M77.6736 108.903C77.6844 109.067 77.6611 109.232 77.6052 109.387C77.5494 109.541 77.4621 109.683 77.3489 109.802C77.2358 109.922 77.0991 110.017 76.9476 110.081C76.7961 110.145 76.6329 110.177 76.4683 110.175C76.1258 110.171 75.7974 110.038 75.5491 109.802C75.3007 109.566 75.1507 109.245 75.1291 108.903C75.1189 108.739 75.1426 108.574 75.1987 108.42C75.2547 108.265 75.342 108.124 75.4551 108.005C75.5682 107.885 75.7046 107.791 75.8559 107.726C76.0071 107.662 76.17 107.629 76.3344 107.631C76.677 107.635 77.0053 107.768 77.2537 108.004C77.5021 108.24 77.6521 108.561 77.6736 108.903Z" fill="#263238"/>
<path d="M81.5833 108.903C81.5935 109.067 81.5698 109.232 81.5135 109.387C81.4572 109.542 81.3695 109.683 81.2561 109.803C81.1426 109.922 81.0058 110.017 80.854 110.081C80.7023 110.145 80.539 110.177 80.3743 110.175C80.0321 110.171 79.7042 110.038 79.4564 109.802C79.2087 109.566 79.0595 109.245 79.0388 108.903C79.028 108.739 79.0513 108.574 79.1072 108.419C79.1631 108.265 79.2503 108.123 79.3635 108.004C79.4767 107.884 79.6133 107.789 79.7649 107.725C79.9164 107.661 80.0796 107.629 80.2441 107.631C80.5866 107.635 80.915 107.768 81.1634 108.004C81.4117 108.24 81.5617 108.561 81.5833 108.903Z" fill="#263238"/>
<path d="M123.876 65.7026C123.969 65.844 124.017 65.9184 124.077 66.0188L124.244 66.2941C124.352 66.4801 124.449 66.6661 124.542 66.8484C124.728 67.2204 124.914 67.5924 125.063 67.9644C125.374 68.7032 125.643 69.4597 125.866 70.2299C126.317 71.7513 126.613 73.3141 126.752 74.8948L126.778 75.1886C126.781 75.2481 126.781 75.3077 126.778 75.3672V75.5644C126.784 75.8231 126.769 76.0818 126.733 76.3381C126.662 76.8132 126.537 77.2786 126.361 77.7257C126.034 78.5241 125.601 79.2749 125.074 79.9577C124.09 81.2174 122.923 82.3222 121.61 83.235L120.584 82.0334C121.518 80.9783 122.345 79.8331 123.054 78.6148C123.373 78.0621 123.622 77.4724 123.798 76.8589C123.869 76.5991 123.91 76.332 123.921 76.0628C123.932 75.9478 123.932 75.8319 123.921 75.7169V75.6388C123.924 75.6041 123.924 75.5692 123.921 75.5346L123.876 75.2742C123.637 73.8878 123.299 72.5203 122.864 71.1822C122.648 70.5163 122.384 69.8728 122.12 69.2441C121.99 68.9279 121.841 68.6191 121.692 68.3215L121.462 67.8826L121.346 67.678L121.25 67.5143L123.876 65.7026Z" fill="#803E3C"/>
<path d="M120.416 83.2424L121.763 86.0882L122.831 83.6814C122.831 83.6814 121.882 81.5982 120.599 81.7916L120.416 83.2424Z" fill="#7F3E3B"/>
<path d="M122.727 86.2295L123.798 84.4737L122.831 83.6813L121.763 86.0882L122.727 86.2295Z" fill="#7F3E3B"/>
<path d="M116.67 151.858C116.949 151.851 117.226 151.813 117.496 151.746C117.51 151.742 117.522 151.734 117.532 151.724C117.542 151.713 117.549 151.701 117.552 151.687C117.554 151.672 117.552 151.658 117.546 151.645C117.54 151.631 117.531 151.62 117.518 151.612C117.411 151.542 116.466 150.932 116.101 151.095C116.061 151.114 116.026 151.143 116.001 151.18C115.975 151.216 115.96 151.259 115.956 151.304C115.945 151.371 115.95 151.44 115.971 151.505C115.993 151.57 116.03 151.628 116.079 151.676C116.248 151.806 116.458 151.871 116.67 151.858ZM117.284 151.638C116.745 151.75 116.336 151.731 116.168 151.586C116.134 151.552 116.109 151.51 116.095 151.464C116.082 151.418 116.08 151.369 116.09 151.322C116.09 151.259 116.127 151.24 116.153 151.229C116.354 151.14 116.901 151.404 117.284 151.638Z" fill="#4898C6"/>
<path d="M117.478 151.746H117.515C117.526 151.739 117.535 151.729 117.542 151.717C117.548 151.706 117.552 151.693 117.552 151.679C117.552 151.642 117.552 150.746 117.21 150.444C117.168 150.406 117.118 150.378 117.064 150.362C117.01 150.345 116.953 150.34 116.897 150.348C116.839 150.348 116.782 150.369 116.737 150.406C116.691 150.443 116.66 150.495 116.648 150.552C116.577 150.906 117.143 151.575 117.44 151.746H117.478ZM116.946 150.485C116.976 150.484 117.006 150.489 117.034 150.5C117.062 150.511 117.088 150.528 117.109 150.548C117.306 150.838 117.407 151.181 117.399 151.53C117.102 151.292 116.748 150.786 116.793 150.574C116.793 150.541 116.819 150.496 116.912 150.485H116.946Z" fill="#4898C6"/>
<path d="M113.159 150.34C113.167 150.329 113.173 150.316 113.175 150.302C113.177 150.288 113.175 150.274 113.17 150.261C113.165 150.248 113.156 150.237 113.145 150.229C113.134 150.22 113.12 150.215 113.107 150.214C112.954 150.214 111.619 150.15 111.314 150.478V150.5C111.288 150.532 111.272 150.57 111.266 150.611C111.26 150.651 111.265 150.693 111.28 150.731C111.3 150.794 111.335 150.853 111.382 150.9C111.43 150.947 111.488 150.982 111.552 151.002C111.983 151.136 112.746 150.649 113.162 150.347L113.159 150.34ZM111.425 150.574C111.593 150.396 112.329 150.347 112.88 150.355C112.303 150.749 111.823 150.935 111.581 150.861C111.539 150.848 111.501 150.825 111.47 150.794C111.439 150.763 111.416 150.724 111.403 150.682C111.395 150.668 111.391 150.652 111.391 150.636C111.391 150.62 111.395 150.604 111.403 150.589L111.425 150.574Z" fill="#4898C6"/>
<path d="M113.159 150.34C113.164 150.328 113.167 150.316 113.167 150.303C113.167 150.29 113.164 150.277 113.159 150.266C113.14 150.236 112.723 149.522 112.232 149.373C112.162 149.352 112.088 149.346 112.015 149.355C111.942 149.364 111.872 149.388 111.808 149.425C111.63 149.529 111.619 149.652 111.641 149.73C111.738 150.076 112.686 150.381 113.095 150.377C113.108 150.377 113.121 150.373 113.132 150.367C113.143 150.36 113.152 150.351 113.159 150.34ZM111.823 149.596C111.844 149.575 111.868 149.558 111.894 149.544C111.94 149.515 111.992 149.496 112.046 149.489C112.1 149.482 112.154 149.487 112.206 149.503C112.53 149.589 112.831 150.005 112.969 150.21C112.526 150.161 111.853 149.89 111.797 149.682C111.792 149.666 111.792 149.649 111.797 149.633C111.802 149.617 111.811 149.603 111.823 149.592V149.596Z" fill="#4898C6"/>
<path d="M117.254 54.8067C116.882 56.6667 116.079 60.688 117.37 61.9231C117.37 61.9231 116.864 63.7831 113.43 63.7831C109.651 63.7831 111.626 61.9231 111.626 61.9231C113.687 61.432 113.635 59.8994 113.274 58.4635L117.254 54.8067Z" fill="#7F3E3B"/>
<path d="M110.96 50.4469C110.981 50.4503 111.002 50.4503 111.023 50.4469C111.041 50.4382 111.057 50.4261 111.07 50.4112C111.083 50.3964 111.093 50.3791 111.099 50.3604C111.105 50.3417 111.107 50.322 111.106 50.3024C111.105 50.2827 111.099 50.2636 111.09 50.246C110.99 50.0338 110.841 49.8487 110.654 49.7063C110.468 49.5639 110.25 49.4683 110.019 49.4276C109.98 49.4244 109.942 49.436 109.911 49.4602C109.881 49.4844 109.861 49.5193 109.855 49.5578C109.851 49.5967 109.862 49.6357 109.887 49.6664C109.911 49.697 109.947 49.7168 109.985 49.7215C110.168 49.7565 110.339 49.8345 110.485 49.949C110.632 50.0635 110.748 50.2112 110.826 50.3799C110.841 50.4019 110.861 50.4197 110.884 50.4315C110.908 50.4432 110.934 50.4485 110.96 50.4469Z" fill="#263238"/>
<path d="M109.833 52.08C109.54 52.623 109.175 53.1236 108.747 53.568C108.863 53.674 109 53.7535 109.15 53.801C109.299 53.8486 109.458 53.863 109.613 53.8432L109.833 52.08Z" fill="#630F0F"/>
<path d="M110.112 51.6596C110.082 51.9089 109.922 52.0949 109.762 52.0763C109.602 52.0577 109.491 51.8382 109.52 51.5889C109.55 51.3397 109.71 51.1537 109.892 51.1723C110.075 51.1909 110.138 51.4104 110.112 51.6596Z" fill="#263238"/>
<path d="M109.941 51.1946L109.368 50.964C109.368 50.964 109.61 51.455 109.941 51.1946Z" fill="#263238"/>
<path d="M116.443 149.633L113.408 150.34L111.563 143.361L114.598 142.655L116.443 149.633Z" fill="#7F3E3B"/>
<path d="M121.101 151.672H117.987L118.229 144.459H121.346L121.101 151.672Z" fill="#7F3E3B"/>
<path d="M117.738 151.311H121.239C121.299 151.31 121.358 151.332 121.404 151.372C121.45 151.412 121.48 151.467 121.488 151.527L121.886 154.294C121.894 154.364 121.887 154.435 121.865 154.502C121.844 154.569 121.808 154.631 121.761 154.684C121.714 154.736 121.656 154.778 121.592 154.806C121.528 154.835 121.458 154.849 121.387 154.849C120.167 154.83 119.579 154.756 118.039 154.756C117.091 154.756 115.707 154.856 114.401 154.856C113.095 154.856 113.021 153.562 113.568 153.446C116.008 152.918 116.395 152.196 117.217 151.504C117.362 151.38 117.547 151.312 117.738 151.311Z" fill="#263238"/>
<path d="M113.14 149.875L116.321 148.413C116.375 148.387 116.436 148.382 116.494 148.399C116.551 148.415 116.601 148.452 116.633 148.502L118.155 150.853C118.19 150.914 118.213 150.981 118.221 151.051C118.228 151.121 118.222 151.191 118.201 151.258C118.18 151.325 118.145 151.387 118.098 151.44C118.052 151.492 117.995 151.535 117.931 151.564C116.815 152.055 116.25 152.237 114.851 152.881C113.992 153.275 112.247 154.183 111.064 154.741C109.881 155.299 109.271 154.142 109.718 153.807C111.715 152.319 112.288 151.251 112.746 150.281C112.823 150.102 112.963 149.957 113.14 149.875Z" fill="#263238"/>
<path opacity="0.2" d="M111.563 143.361L112.552 147.104L115.551 146.252L114.602 142.655L111.563 143.361Z" fill="black"/>
<path opacity="0.2" d="M121.346 144.459H118.229L118.106 148.179H121.224L121.346 144.459Z" fill="black"/>
<path d="M122.76 62.6299C124.055 62.9163 125.438 67.5701 125.438 67.5701L121.778 71.4649C121.778 71.4649 118.739 67.0902 119.36 65.4831C119.989 63.8054 121.216 62.2951 122.76 62.6299Z" fill="#263238"/>
<path opacity="0.4" d="M120.692 65.5948C120.037 64.9958 119.594 65.1744 119.293 65.6506C118.995 67.0344 120.759 69.9323 121.469 71.0297C121.796 69.7202 122.172 66.96 120.692 65.5948Z" fill="black"/>
<path d="M106.358 62.7229C106.358 62.7229 104.87 63.2437 107.846 81.5275H120.494C120.282 76.379 120.275 73.2021 122.726 62.6299C120.954 62.2642 119.158 62.028 117.351 61.9231C115.439 61.7853 113.519 61.7853 111.607 61.9231C109.156 62.15 106.358 62.7229 106.358 62.7229Z" fill="#263238"/>
<path opacity="0.4" d="M106.243 69.7388C106.325 70.6279 106.433 71.6286 106.574 72.7594C107.612 71.8257 108.46 69.1697 108.148 67.6221C107.406 68.2239 106.764 68.9382 106.243 69.7388Z" fill="black"/>
<path d="M107.597 66.96C106.915 68.6778 106.146 70.3601 105.295 72.0006C104.453 73.7003 103.457 75.3191 102.319 76.8366L102.08 77.1305L101.961 77.2755C101.92 77.3239 101.887 77.3685 101.824 77.4355C101.6 77.6797 101.351 77.8992 101.08 78.0902C100.601 78.4214 100.078 78.682 99.5248 78.864C98.5608 79.1719 97.5599 79.3495 96.5488 79.3922C94.6552 79.4675 92.7598 79.2987 90.9093 78.89L91.1139 77.3276C91.9695 77.3276 92.866 77.3276 93.7179 77.2569C94.5735 77.2148 95.4257 77.1204 96.2698 76.9742C97.0538 76.8519 97.8205 76.6371 98.5539 76.3344C98.8501 76.2079 99.1269 76.04 99.376 75.8359C99.4711 75.7563 99.5572 75.6664 99.6327 75.5681C99.6327 75.5681 99.6773 75.5085 99.7071 75.4676L99.7927 75.3449L99.9675 75.0993C100.901 73.6575 101.733 72.1522 102.456 70.5944C103.2 69.0134 103.944 67.3729 104.625 65.7584L107.597 66.96Z" fill="#803E3C"/>
<path d="M106.358 62.7229C104.807 63.0949 102.903 67.3505 102.903 67.3505L106.117 72.0749C106.117 72.0749 110.398 66.6847 109.889 65.0404C109.368 63.3255 108.252 62.2616 106.358 62.7229Z" fill="#263238"/>
<path d="M92.0067 77.5657L89.3246 76.3269L89.0568 78.9941C89.0568 78.9941 91.2888 79.6526 92.4048 78.9941L92.0067 77.5657Z" fill="#7F3E3B"/>
<path d="M87.7213 76.0591L87.4646 78.0902L89.0568 78.9942L89.3246 76.3269L87.7213 76.0591Z" fill="#7F3E3B"/>
<path d="M118.601 51.8419C118.032 54.8811 117.857 56.1831 116.116 57.5632C113.512 59.639 109.885 58.2775 109.535 55.1303C109.215 52.2957 110.198 47.8019 113.348 46.9463C114.042 46.7549 114.774 46.7444 115.473 46.9159C116.173 47.0874 116.816 47.4352 117.343 47.9261C117.87 48.417 118.262 49.0346 118.482 49.7201C118.702 50.4056 118.743 51.1361 118.601 51.8419Z" fill="#7F3E3B"/>
<path d="M111.924 52.4818C111.749 54.033 111.682 58.0618 115.089 58.1882C119.259 58.3408 120.509 54.777 120.137 53.3522C122.31 51.5852 122.622 48.546 120.182 46.221C117.742 43.896 112.37 45.1943 110.882 47.4598C108.996 50.2684 111.924 52.4818 111.924 52.4818Z" fill="#263238"/>
<path d="M116.101 47.1249C115.9 45.4881 116.057 44.361 117.589 44.361C119.122 44.361 121.212 44.9152 121.979 46.4814C122.745 48.0475 122.808 50.499 120.669 50.2497C118.53 50.0005 116.343 49.0816 116.101 47.1249Z" fill="#4898C6"/>
<path d="M118.475 46.7306C118.103 44.7813 119.847 39.2906 124.084 38.9186C126.048 38.7512 126.956 40.8642 125.944 41.2138C127.804 41.1915 128.995 43.6504 127.261 44.0187C128.63 44.8966 128.292 46.6971 126.339 47.5825C124.884 48.2521 118.977 49.4313 118.475 46.7306Z" fill="#263238"/>
<path d="M123.002 48.825C121.637 48.825 120.212 48.6241 119.326 48.0326C119.079 47.8834 118.87 47.6773 118.718 47.4315C118.566 47.1857 118.475 46.9072 118.452 46.619C118.451 46.5946 118.459 46.5706 118.475 46.552C118.491 46.5333 118.513 46.5214 118.538 46.5186C118.55 46.517 118.563 46.5181 118.575 46.5216C118.586 46.5252 118.597 46.5311 118.607 46.5392C118.616 46.5473 118.624 46.5572 118.629 46.5684C118.635 46.5796 118.638 46.5917 118.638 46.6041C118.661 46.8642 118.744 47.1152 118.882 47.3369C119.019 47.5586 119.207 47.7447 119.431 47.8801C121.116 48.9961 125.011 48.6241 126.223 48.2521C127.272 47.9099 127.983 47.244 128.124 46.4777C128.168 46.1965 128.134 45.9085 128.024 45.6459C127.914 45.3832 127.734 45.1561 127.503 44.9897C127.494 44.9813 127.487 44.9712 127.482 44.96C127.477 44.9488 127.475 44.9368 127.475 44.9246C127.475 44.9124 127.477 44.9003 127.482 44.8891C127.487 44.8779 127.494 44.8678 127.503 44.8595C127.52 44.8424 127.544 44.8329 127.568 44.8329C127.592 44.8329 127.616 44.8424 127.633 44.8595C127.893 45.0489 128.095 45.3069 128.216 45.6045C128.338 45.902 128.374 46.2276 128.321 46.5446C128.169 47.3816 127.414 48.0959 126.298 48.4604C125.221 48.7319 124.112 48.8545 123.002 48.825Z" fill="#263238"/>
<path d="M110.975 52.08C110.629 52.5659 110.486 53.168 110.577 53.7577C110.7 54.5389 111.459 54.591 112.009 54.0925C112.56 53.594 113.04 52.6938 112.634 52.0465C112.544 51.9067 112.42 51.7923 112.273 51.7141C112.126 51.636 111.961 51.5967 111.795 51.6001C111.629 51.6034 111.466 51.6493 111.323 51.7333C111.179 51.8173 111.059 51.9366 110.975 52.08Z" fill="#7F3E3B"/>
<path d="M111.187 81.5275C111.187 81.5275 112.995 102.914 114.874 114.967C116.388 124.702 117.585 147.457 117.585 147.457H121.834C121.834 147.457 123.344 125.383 122.578 115.755C120.632 91.3892 124.973 89.4027 120.506 81.5312L111.187 81.5275Z" fill="#4898C6"/>
<path opacity="0.4" d="M116.536 89.6111C114.853 91.3781 113.494 93.4283 112.523 95.6672C113.017 100.473 113.605 105.808 114.23 110.48C116.794 103.841 117.589 96.6498 116.536 89.6111Z" fill="black"/>
<path d="M108.215 81.3936C108.215 81.3936 104.29 104.751 103.673 115.279C105.213 125.014 111.514 145.593 111.514 145.593L115.379 144.191C115.379 144.191 113.24 121.752 110.915 115.61C116.149 97.9885 119.996 93.5319 118.876 81.5275C116.194 81.5275 108.215 81.3936 108.215 81.3936Z" fill="#4898C6"/>
<path d="M110.997 146.62L116.22 145.203L115.923 143.12L110.331 144.634L110.997 146.62Z" fill="#263238"/>
<path d="M117.001 147.543H122.414L122.697 145.645L116.972 145.452L117.001 147.543Z" fill="#263238"/>
<path d="M120.692 80.7835L121.261 81.9181C121.305 82.0073 121.201 82.0966 121.056 82.0966H107.783C107.672 82.0966 107.575 82.0408 107.567 81.9664L107.452 80.8504C107.452 80.7723 107.545 80.7053 107.668 80.7053H120.483C120.522 80.7001 120.561 80.7045 120.597 80.7181C120.634 80.7317 120.666 80.7542 120.692 80.7835Z" fill="#4898C6"/>
<path opacity="0.5" d="M120.692 80.7835L121.261 81.9181C121.305 82.0073 121.201 82.0966 121.056 82.0966H107.783C107.672 82.0966 107.575 82.0408 107.567 81.9664L107.452 80.8504C107.452 80.7723 107.545 80.7053 107.668 80.7053H120.483C120.522 80.7001 120.561 80.7045 120.597 80.7181C120.634 80.7317 120.666 80.7542 120.692 80.7835Z" fill="black"/>
<path d="M118.969 82.212H119.311C119.382 82.212 119.434 82.1748 119.431 82.1339L119.267 80.6459C119.267 80.6012 119.204 80.5677 119.137 80.5677H118.791C118.724 80.5677 118.672 80.6012 118.675 80.6459L118.835 82.1339C118.843 82.1822 118.902 82.212 118.969 82.212Z" fill="#4898C6"/>
<path d="M114.364 71.3793C114.323 71.3787 114.283 71.365 114.25 71.3403C114.217 71.3156 114.193 71.281 114.182 71.2417C112.969 66.7554 110.462 63.0577 109.245 62.4997C109.151 62.4417 109.037 62.423 108.929 62.4476C108.907 62.4595 108.882 62.4666 108.857 62.4685C108.831 62.4705 108.806 62.4672 108.782 62.459C108.758 62.4507 108.736 62.4376 108.717 62.4205C108.698 62.4034 108.683 62.3826 108.673 62.3595C108.662 62.3363 108.657 62.3113 108.656 62.2859C108.656 62.2605 108.661 62.2353 108.67 62.2119C108.68 62.1884 108.695 62.1672 108.713 62.1495C108.731 62.1318 108.753 62.1181 108.776 62.1091C108.878 62.0718 108.987 62.0571 109.095 62.0661C109.203 62.0751 109.307 62.1075 109.401 62.1612C110.689 62.7713 113.233 66.4169 114.505 71.0036C115.417 71.0036 116.823 70.8809 117.165 70.8511C117.589 70.3452 120.706 66.4466 119.542 62.1798C119.535 62.1563 119.533 62.1318 119.536 62.1076C119.539 62.0833 119.547 62.0599 119.559 62.0388C119.571 62.0176 119.588 61.9991 119.607 61.9844C119.626 61.9696 119.649 61.9589 119.672 61.9529C119.72 61.9403 119.77 61.947 119.813 61.9713C119.855 61.9957 119.886 62.0359 119.899 62.0831C121.198 66.8298 117.433 71.1115 117.392 71.1524C117.377 71.1705 117.359 71.1854 117.339 71.1963C117.318 71.2071 117.296 71.2137 117.273 71.2157C117.254 71.2157 115.398 71.3793 114.364 71.3793Z" fill="#4898C6"/>
<path d="M120.528 74.0057C118.501 70.2075 117.671 69.9397 117.31 68.7195C117.583 68.0372 117.974 67.4078 118.463 66.8595C118.218 66.7889 117.69 66.6847 117.347 66.6215C117.385 66.4541 117.425 66.2904 117.463 66.1304C117.09 66.0887 116.714 66.1063 116.347 66.1825V65.8105C115.874 65.7077 115.389 65.6763 114.907 65.7175C114.949 65.8936 114.99 66.0721 115.03 66.2532C114.658 66.3239 114.092 66.4392 113.821 66.5173C114.348 67.1149 114.736 67.8228 114.955 68.5893C113.862 70.4679 109.613 82.5431 116.525 83.4693C123.437 84.3956 122.552 77.8075 120.528 74.0057Z" fill="#4898C6"/>
<path opacity="0.4" d="M120.528 74.0057C118.501 70.2075 117.671 69.9397 117.31 68.7195C117.583 68.0372 117.974 67.4078 118.463 66.8595C118.218 66.7889 117.69 66.6847 117.347 66.6215C117.385 66.4541 117.425 66.2904 117.463 66.1304C117.09 66.0887 116.714 66.1063 116.347 66.1825V65.8105C115.874 65.7077 115.389 65.6763 114.907 65.7175C114.949 65.8936 114.99 66.0721 115.03 66.2532C114.658 66.3239 114.092 66.4392 113.821 66.5173C114.348 67.1149 114.736 67.8228 114.955 68.5893C113.862 70.4679 109.613 82.5431 116.525 83.4693C123.437 84.3956 122.552 77.8075 120.528 74.0057Z" fill="white"/>
<path d="M114.673 68.2285C114.63 68.4201 114.611 68.6163 114.617 68.8125C114.617 68.9502 114.989 69.0432 115.402 69.0841C115.815 69.125 117.548 69.192 117.492 68.9985C117.437 68.8051 117.578 68.541 117.585 68.3773C117.593 68.2136 116.897 68.2062 116.313 68.2285C115.729 68.2508 114.788 68.0202 114.673 68.2285Z" fill="#4898C6"/>
<path d="M110.651 82.212H110.994C111.061 82.212 111.113 82.1748 111.109 82.1339L110.949 80.6459C110.949 80.6012 110.886 80.5677 110.815 80.5677H110.484C110.417 80.5677 110.365 80.6012 110.369 80.6459L110.529 82.1339C110.521 82.1822 110.581 82.212 110.651 82.212Z" fill="#4898C6"/>
</svg>
